<?xml version="1.0" encoding="UTF-8"?>
<svg width="142px" height="142px" viewBox="0 0 142 142" version="1.1" xmlns="http://www.w3.org/2000/svg" xmlns:xlink="http://www.w3.org/1999/xlink">
    <!-- Generator: Sketch 46 (44423) - http://www.bohemiancoding.com/sketch -->
    <title>Group 8</title>
    <desc>Created with Sketch.</desc>
    <defs>
        <rect id="path-1" x="0" y="0" width="142" height="142" rx="6"></rect>
        <path d="M148.129496,11.2374101 C124.822276,44.1895827 100.595033,64.3270216 75.4477681,71.6497266 C50.3005035,78.9724317 22.0864992,96.9740815 -9.1942446,125.654676" id="path-3"></path>
        <ellipse id="path-4" cx="35.2410282" cy="35.0208921" rx="28.5206782" ry="28.375482"></ellipse>
    </defs>
    <g id="Page-1" stroke="none" stroke-width="1" fill="none" fill-rule="evenodd">
        <g id="Select-rakhis" transform="translate(-32.000000, -392.000000)">
            <g id="Group-8" transform="translate(32.000000, 392.000000)">
                <g id="bg_1">
                    <mask id="mask-2" fill="white">
                        <use xlink:href="#path-1"></use>
                    </mask>
                    <use id="Mask" fill="#FA5857" xlink:href="#path-1"></use>
                    <g id="Path-2" stroke-linecap="round" stroke-linejoin="round" mask="url(#mask-2)">
                        <use stroke="#54348C" stroke-width="8.09999979" xlink:href="#path-3"></use>
                        <use stroke="#633EA5" stroke-width="1.79999995" xlink:href="#path-3"></use>
                    </g>
                </g>
                <path d="M67.4525894,112.946329 L67.4502408,112.948599 L67.4502408,112.948599 C65.9027413,114.44396 63.4360148,114.401694 61.9406531,112.854195 C61.672454,112.576645 61.4469808,112.260786 61.2716185,111.916965 L61.2716185,111.916965 L61.2716185,111.916965 C59.9374979,109.301245 56.7700326,108.213924 54.1106656,109.458769 L54.0971909,109.465077 L54.0971909,109.465077 C52.1504842,110.376327 49.8336526,109.536923 48.9224026,107.590217 C48.7585449,107.240167 48.6477447,106.867661 48.5936496,106.484963 L48.5936496,106.484963 L48.5936496,106.484963 C48.1829615,103.579532 45.5415017,101.523735 42.6241784,101.839039 L42.6040812,101.841211 L42.6040812,101.841211 C40.4697129,102.071893 38.5524609,100.52865 38.321779,98.3942817 C38.2801303,98.0089303 38.2963507,97.6195168 38.3699019,97.2389639 L38.3699019,97.2389639 L38.3699019,97.2389639 C38.926541,94.3589218 37.0959714,91.5572048 34.2348687,90.9102271 L34.2182618,90.9064718 L34.2182618,90.9064718 C32.1259295,90.4333351 30.813312,88.3536116 31.2864486,86.2612793 C31.3721973,85.8820765 31.5143917,85.5178964 31.7082773,85.1809157 L31.7082773,85.1809157 L31.7082773,85.1809157 C33.1713797,82.6379865 32.3495107,79.3927025 29.852404,77.8526974 L29.8467359,77.8492017 L29.8467359,77.8492017 C28.0208431,76.7231448 27.453514,74.3301167 28.579571,72.5042239 C28.7840542,72.172656 29.0372522,71.8737351 29.3306659,71.6174949 L29.3319696,71.6163564 L29.3319696,71.6163564 C31.5422759,69.6860816 31.8188243,66.3488476 29.9563998,64.0810756 L29.9563998,64.0810756 L29.9563998,64.0810756 C28.5950822,62.423474 28.8352678,59.9761565 30.4928694,58.614839 C30.793672,58.3678027 31.1299021,58.1673891 31.4902891,58.0203165 L31.5018819,58.0155855 L31.5018819,58.0155855 C34.2178155,56.9072229 35.562387,53.8421019 34.5385118,51.0932035 L34.5385118,51.0932035 L34.5385118,51.0932035 C33.7895384,49.0823612 34.8124853,46.8450885 36.8233276,46.0961151 C37.1871201,45.9606142 37.5691659,45.8804003 37.9567355,45.858146 L37.9763899,45.8570174 L37.9763899,45.8570174 C40.9052264,45.6888431 43.172011,43.2266169 43.0979373,40.2938913 L43.0979373,40.2938913 L43.0979373,40.2938913 C43.0436999,38.1465226 44.7405182,36.3617682 46.8878869,36.3075308 C47.2747694,36.297759 47.6609438,36.3457841 48.0336482,36.4500189 L48.051514,36.4550154 L48.051514,36.4550154 C50.8782723,37.2455788 53.8227192,35.6522282 54.7071299,32.8534122 L54.7071299,32.8534122 L54.7071299,32.8534122 C55.3551778,30.8025922 57.5430427,29.6654207 59.5938627,30.3134687 C59.962058,30.4298164 60.3109019,30.600278 60.6289457,30.8192592 L60.636846,30.8246988 L60.636846,30.8246988 C63.0562485,32.4905186 66.3605806,31.9391596 68.1080532,29.5780575 L68.1080532,29.5780575 L68.1080532,29.5780575 C69.3887589,27.8476287 71.8297656,27.4830561 73.5601944,28.7637617 C73.870445,28.9933809 74.1448709,29.2678069 74.3744901,29.5780575 L74.3744901,29.5780575 L74.3744901,29.5780575 C76.1219628,31.9391596 79.4262949,32.4905186 81.8456974,30.8246988 L81.8535976,30.8192592 L81.8535976,30.8192592 C83.6250773,29.5995507 86.0499144,30.0468495 87.2696229,31.8183292 C87.4886041,32.136373 87.6590658,32.4852169 87.7754135,32.8534122 L87.7754135,32.8534122 L87.7754135,32.8534122 C88.6598241,35.6522282 91.604271,37.2455788 94.4310294,36.4550154 L94.4488951,36.4500189 L94.4488951,36.4500189 C96.5175699,35.8714698 98.6635688,37.0794553 99.2421179,39.14813 C99.3463527,39.5208345 99.3943777,39.9070089 99.384606,40.2938913 L99.384606,40.2938913 L99.384606,40.2938913 C99.3105324,43.2266169 101.577317,45.6888431 104.506153,45.8570174 L104.525808,45.858146 L104.525808,45.858146 C106.668077,45.9811555 108.30501,47.8175266 108.182001,49.9597956 C108.159746,50.3473652 108.079532,50.729411 107.944032,51.0932035 L107.944032,51.0932035 L107.944032,51.0932035 C106.920156,53.8421019 108.264728,56.9072229 110.980661,58.0155855 L110.992254,58.0203165 L110.992254,58.0203165 C112.978202,58.8307744 113.931124,61.0977087 113.120666,63.083656 C112.973593,63.4440429 112.77318,63.7802731 112.526144,64.0810756 L112.526144,64.0810756 L112.526144,64.0810756 C110.663719,66.3488476 110.940267,69.6860816 113.150574,71.6163564 L113.151877,71.6174949 L113.151877,71.6174949 C114.767661,73.0285694 114.933611,75.4823229 113.522537,77.0981068 C113.266296,77.3915205 112.967375,77.6447185 112.635807,77.8492017 L112.630139,77.8526974 L112.630139,77.8526974 C110.133033,79.3927025 109.311164,82.6379865 110.774266,85.1809157 L110.774266,85.1809157 L110.774266,85.1809157 C111.844071,87.0402785 111.204008,89.4148382 109.344645,90.4846432 C109.007665,90.6785287 108.643484,90.8207231 108.264282,90.9064718 L108.247675,90.9102271 L108.247675,90.9102271 C105.386572,91.5572048 103.556002,94.3589218 104.112641,97.2389639 L104.112641,97.2389639 L104.112641,97.2389639 C104.520024,99.3467545 103.141571,101.385705 101.03378,101.793088 C100.653227,101.866639 100.263814,101.882859 99.8784621,101.841211 L99.858365,101.839039 L99.858365,101.839039 C96.9410417,101.523735 94.2995818,103.579532 93.8888938,106.484963 L93.8888938,106.484963 L93.8888938,106.484963 C93.5880586,108.613235 91.6188781,110.094665 89.4906062,109.79383 C89.1079079,109.739735 88.7354023,109.628934 88.3853525,109.465077 L88.3718778,109.458769 L88.3718778,109.458769 C85.7125108,108.213924 82.5450455,109.301245 81.2109249,111.916965 L81.2109249,111.916965 L81.2109249,111.916965 C80.2331808,113.833962 77.8865294,114.595377 75.9695323,113.617633 C75.6257112,113.442271 75.3098528,113.216798 75.0323026,112.948599 L75.029954,112.946329 L75.029954,112.946329 C72.9168489,110.904418 69.5656944,110.904418 67.4525894,112.946329 Z" id="Rotating_1" fill="#FFBC00"></path>
                <g id="top_1" transform="translate(36.000000, 36.000000)">
                    <ellipse id="Oval" fill="#54348C" cx="35.2410282" cy="35.0208921" rx="34.6075883" ry="34.4314042"></ellipse>
                    <g id="Oval">
                        <use fill="#633EA5" fill-rule="evenodd" xlink:href="#path-4"></use>
                        <ellipse stroke="#00B898" stroke-width="2.69999993" cx="35.2410282" cy="35.0208921" rx="27.1706782" ry="27.0254821"></ellipse>
                    </g>
                    <ellipse id="Oval" fill="#EB3B8C" cx="35.2410282" cy="35.0208921" rx="21.4266158" ry="21.3175348"></ellipse>
                    <g id="pranava-om" transform="translate(23.000000, 22.000000)" fill-rule="nonzero" fill="#FFFFFF">
                        <path d="M22.7856756,14.3853591 C22.572378,12.778384 22.0207202,11.5015884 21.0962708,10.4832873 C19.6691071,8.91139503 17.8037798,8.46167127 16.0256607,9.26201657 C14.7008333,9.85877072 13.9416964,11.009116 13.4290565,11.9453039 C13.301256,12.1777624 13.1885833,12.4188536 13.0755685,12.6587707 C12.9045744,13.0234807 12.7422054,13.3673343 12.5325357,13.6824586 C11.9661607,14.5300414 11.5916577,14.7042818 11.2030536,14.7042818 C11.0811399,14.7042818 10.948,14.6859807 10.7965149,14.6486878 C10.4530893,14.5628453 10.1221905,14.3998619 9.77239881,14.2273481 C9.74015774,14.2123619 9.70764286,14.1957873 9.67601786,14.1808702 C10.2816845,13.7885359 10.7981577,13.2428177 11.2133214,12.5569061 C11.960753,11.3210635 12.1422887,9.99737569 11.7371875,8.7269337 C11.2313929,7.1413674 10.0823512,6.27071823 8.3216875,6.14109116 C6.25928571,5.98950276 4.39621726,6.54288674 2.58435119,7.83308011 C2.25714881,8.06698895 2.19157143,8.34896409 2.38399107,8.6941989 C2.60406548,9.09122928 2.81024405,9.49516575 3.01738095,9.89848066 L3.85797619,11.5338398 L4.18579464,11.3194751 C4.2448006,11.2825276 4.29141667,11.2526934 4.33604762,11.2183011 C5.18978571,10.5727901 6.1006131,10.0950967 7.04546131,9.79834254 C7.80487202,9.56015193 8.4913125,9.59785912 9.15078274,9.91139503 C9.62351488,10.1359116 9.86391964,10.5091851 9.86522024,11.0200967 C9.86645238,11.4675414 9.63994345,11.8167127 9.1929494,12.0566298 C8.25823214,12.5594613 7.25814286,12.6923343 6.1253244,12.4642956 C5.91572321,12.4225829 5.70749107,12.3786602 5.46373214,12.3280387 L4.959375,12.2223066 L5.0857381,12.6251381 C5.2283244,13.0803177 5.20477679,13.6600138 5.18211905,14.2198895 C5.14043155,15.2168508 5.09908631,16.247721 6.02517857,16.615953 C6.49866369,16.8046271 7.1313006,16.65 7.70116667,16.4741022 C8.093125,16.3530387 8.45338988,16.2343923 8.73021131,16.292058 C9.55903274,16.4625 10.1000119,16.8714088 10.3382262,17.5058702 C10.674875,18.401174 10.5174345,19.2542127 9.87233929,20.0425414 C9.34655655,20.6857044 8.61842857,21.0614641 7.57911607,21.2256215 C5.77936607,21.506837 4.2665,20.990953 3.09322619,19.6896409 C2.0960119,18.5832182 1.40854464,17.1915055 0.991943452,15.4348757 C0.910758929,15.088605 0.852985119,14.7256906 0.79753869,14.3741022 C0.771869048,14.2086326 0.74578869,14.0436464 0.716764881,13.8789365 L0.685482143,13.6948204 L0.217130952,13.6459254 L0.145392857,14.0572514 C0.118422619,14.2049724 0.091110119,14.3513122 0.0785833333,14.4993094 C-0.0993928571,16.6366713 0.314744048,18.746616 1.30887798,20.7690608 C2.18951786,22.5576657 3.56445238,23.8262431 5.39747024,24.5399862 C6.14291667,24.8302486 6.90828274,24.9779006 7.67344345,24.9779006 C8.28958333,24.9779006 8.91215774,24.8816298 9.52419048,24.6917127 C10.6551607,24.3441989 11.5045863,23.7180249 12.0500833,22.8313536 C13.1302619,21.0772099 13.2325982,19.078384 12.3620893,16.7225138 C12.3041101,16.5653315 12.2348363,16.4168508 12.16125,16.2650552 C12.3579137,16.2899171 12.5478006,16.3111188 12.7389196,16.3152624 L12.9305179,16.318163 C13.3053631,16.318163 13.7381875,16.292058 14.1775833,16.1660221 L13.9424494,16.625 C13.9021994,16.7009669 13.873381,16.7585635 13.8462738,16.8183011 C13.8195774,16.8775552 13.8019167,16.944337 13.792881,17.0218923 C13.605869,18.5599448 13.769881,19.8040746 14.3091488,20.9370166 C14.9664286,22.3179558 16.2669554,23.1415055 17.7877619,23.1415055 C18.4889881,23.1415055 19.182,22.9565608 19.7919792,22.6078039 C21.7243214,21.5010359 22.7465893,19.7098757 22.9184048,17.1316989 C22.9698125,16.3372928 22.9287411,15.4652624 22.7856756,14.3853591 Z M14.3745208,16.1022099 C14.686869,15.9885359 14.9992857,15.8189227 15.293631,15.5627072 C15.9795923,14.965953 16.4330208,14.2024862 16.8711845,13.4635359 L16.9723571,13.2926796 C17.2843631,12.7685083 17.6715298,12.1773481 18.1705476,11.7678177 C18.4739286,11.5194061 18.8405595,11.3832182 19.2046577,11.3832182 C19.8097768,11.3832182 20.3136548,11.7394337 20.5898601,12.361326 C21.1583571,13.6423343 21.2376935,14.9780387 20.8291012,16.3332873 C20.3338482,17.9763122 18.7755298,19.168163 17.1235685,19.168163 C16.8683095,19.168163 16.6096964,19.1399862 16.3577232,19.0843923 C15.4418988,18.879489 14.7505298,18.1745166 14.5960327,17.2845304 C14.5713899,17.1419199 14.5438036,16.9996547 14.5138214,16.8412293 L14.3745208,16.1022099 Z M11.7154881,6.82458564 C11.0912708,6.19620166 10.4102381,5.40573204 10.09125,4.31816298 C9.86925893,3.56609116 9.82305357,2.92624309 9.94469345,2.3054558 L10.1345804,1.33218232 L10.4202321,2.28162983 C10.6587887,3.07700276 11.1560268,3.76788674 11.9392589,4.39592541 C13.3484881,5.52803867 14.8972917,5.67838398 16.5719107,4.85207182 C17.282994,4.5015884 17.8646339,4.06263812 18.3492768,3.50966851 C18.4232738,3.42527624 18.4930952,3.3359116 18.5707887,3.23867403 L18.9012768,2.82727901 L19.0903423,3.06802486 C19.3024762,3.33819061 19.662125,3.63328729 20.0098631,3.91857735 C20.6318214,4.43038674 21.1690357,4.87237569 21.191625,5.35013812 C21.2003185,5.53114641 21.1303601,5.70096685 20.9910595,5.84012431 C20.3407619,6.48743094 20.0271131,6.75821823 19.448006,7.08915746 C18.0635565,7.87686464 16.7182619,8.25946133 15.3318274,8.25946133 C15.1320149,8.25946133 14.9294643,8.25145028 14.7255446,8.23439227 C13.5602798,8.13756906 12.5482798,7.66374309 11.7154881,6.82458564 Z M12.6608839,3.20138122 C12.3139673,2.87279006 12.1220268,2.69198895 12.1191518,2.43197514 C12.1170982,2.16968232 12.3139673,1.97479282 12.6411696,1.65234807 C12.9889077,1.30918508 13.3510208,0.987776243 13.7332589,0.64730663 C13.9129464,0.487085635 14.0970149,0.323273481 14.2861488,0.153038674 L14.4538571,-1.77635684e-15 L14.9808036,0.50269337 C15.48475,0.981698895 16.0314792,1.5031768 16.5695149,2.03439227 C16.7359911,2.20006906 16.6685655,2.55172652 16.5387113,2.68466851 C16.0511935,3.17976519 15.5571042,3.66560773 15.0486399,4.16533149 L14.3856101,4.81767956 L13.7563274,4.22941989 C13.3950357,3.89350829 13.0266935,3.54889503 12.6608839,3.20138122 Z" id="Combined-Shape"></path>
                    </g>
                </g>
            </g>
        </g>
    </g>
</svg>