<?xml version="1.0" encoding="UTF-8"?>
<svg width="142px" height="142px" viewBox="0 0 142 142" version="1.1" xmlns="http://www.w3.org/2000/svg" xmlns:xlink="http://www.w3.org/1999/xlink">
    <!-- Generator: Sketch 46 (44423) - http://www.bohemiancoding.com/sketch -->
    <title>10</title>
    <desc>Created with Sketch.</desc>
    <defs>
        <rect id="path-1" x="0" y="0" width="142" height="142" rx="6"></rect>
        <path d="M157.323741,0 C134.01652,32.9521727 109.789277,53.0896115 84.6420127,60.4123165 C59.4947481,67.7350216 31.2807438,85.7366715 -1.42108547e-14,114.417266" id="path-3"></path>
    </defs>
    <g id="Page-1" stroke="none" stroke-width="1" fill="none" fill-rule="evenodd">
        <g id="cards-copy" transform="translate(-186.000000, -692.000000)">
            <g id="10" transform="translate(186.000000, 692.000000)">
                <mask id="mask-2" fill="white">
                    <use xlink:href="#path-1"></use>
                </mask>
                <use id="Mask" fill="#56B8EB" xlink:href="#path-1"></use>
                <g id="Group-8" mask="url(#mask-2)">
                    <g transform="translate(-9.194245, 11.237410)">
                        <g id="Path-2" stroke-linecap="round" stroke-linejoin="round">
                            <use stroke="#EB3B8C" stroke-width="3" xlink:href="#path-3"></use>
                            <use stroke="#FF77B5" stroke-width="1" xlink:href="#path-3"></use>
                        </g>
                        <g id="Group-7" stroke-width="1" fill-rule="evenodd" transform="translate(44.480963, 31.306763)">
                            <path d="M14.1554813,32.6126919 C14.1130814,32.5984721 14.0706045,32.5845782 14.0280506,32.5710102 C13.6994581,32.22215 13.3056165,31.908869 12.8206691,31.6288845 C10.6213029,30.3590798 8.58636037,29.9426595 6.71584161,30.3796236 C7.6223056,30.6862696 8.85045292,31.9370939 10.4002836,34.1320964 C10.500045,34.273387 10.593933,34.4196669 10.6825154,34.5704417 C10.6386862,34.579327 10.5949532,34.588533 10.5513164,34.5980597 C10.0923168,34.4602342 9.5945995,34.3858457 9.03463053,34.3858457 C6.49502112,34.3858457 4.52449906,35.0426863 3.12306433,36.3563677 C4.06140817,36.168699 5.75042709,36.6378709 8.19012107,37.7638835 C8.34716233,37.8363641 8.50161163,37.9161021 8.65371368,38.0023858 C8.62019906,38.0319953 8.58692816,38.0618344 8.55390097,38.0919032 C8.08748294,38.2020425 7.61925283,38.3864789 7.13430547,38.6664633 C4.93493921,39.936268 3.55683738,41.4903698 3,43.3287686 C3.71879522,42.6970708 5.41611447,42.2588761 8.09195774,42.0141846 C8.26419975,41.998434 8.43782579,41.9902646 8.61269186,41.9889374 C8.59847209,42.0313373 8.58457821,42.0738142 8.57101024,42.1163681 C8.22215002,42.4449606 7.90886902,42.8388022 7.62888453,43.3237495 C6.35907983,45.5231158 5.94265952,47.5580583 6.3796236,49.4285771 C6.6862696,48.5221131 7.93709386,47.2939658 10.1320964,45.7441351 C10.273387,45.6443737 10.4196669,45.5504857 10.5704417,45.4619033 C10.579327,45.5057325 10.588533,45.5494655 10.5980597,45.5931023 C10.4602342,46.0521018 10.3858457,46.5498192 10.3858457,47.1097881 C10.3858457,49.6493976 11.0426863,51.6199196 12.3563677,53.0213543 C12.168699,52.0830105 12.6378709,50.3939916 13.7638835,47.9542976 C13.8363641,47.7972563 13.9161021,47.642807 14.0023858,47.490705 C14.0319953,47.5242196 14.0618344,47.5574905 14.0919032,47.5905177 C14.2020425,48.0569357 14.3864789,48.5251658 14.6664633,49.0101132 C15.936268,51.2094795 17.4903698,52.5875813 19.3287686,53.1444187 C18.6970708,52.4256235 18.2588761,50.7283042 18.0141846,48.0524609 C17.998434,47.8802189 17.9902646,47.7065929 17.9889374,47.5317268 C18.0313373,47.5459466 18.0738142,47.5598405 18.1163681,47.5734084 C18.4449606,47.9222687 18.8388022,48.2355497 19.3237495,48.5155341 C21.5231158,49.7853388 23.5580583,50.2017592 25.4285771,49.7647951 C24.5221131,49.4581491 23.2939658,48.2073248 21.7441351,46.0123223 C21.6443737,45.8710316 21.5504857,45.7247518 21.4619033,45.5739769 C21.5057325,45.5650917 21.5494655,45.5558857 21.5931023,45.5463589 C22.0521018,45.6841845 22.5498192,45.758573 23.1097881,45.758573 C25.6493976,45.758573 27.6199196,45.1017323 29.0213543,43.7880509 C28.0830105,43.9757197 26.3939916,43.5065478 23.9542976,42.3805352 C23.7972563,42.3080546 23.642807,42.2283166 23.490705,42.1420329 C23.5242196,42.1124234 23.5574905,42.0825843 23.5905177,42.0525155 C24.0569357,41.9423762 24.5251658,41.7579398 25.0101132,41.4779553 C27.2094795,40.2081506 28.5875813,38.6540489 29.1444187,36.8156501 C28.4256235,37.4473479 26.7283042,37.8855426 24.0524609,38.130234 C23.8802189,38.1459846 23.7065929,38.1541541 23.5317268,38.1554813 C23.5459466,38.1130814 23.5598405,38.0706045 23.5734084,38.0280506 C23.9222687,37.6994581 24.2355497,37.3056165 24.5155341,36.8206691 C25.7853388,34.6213029 26.2017592,32.5863604 25.7647951,30.7158416 C25.4581491,31.6223056 24.2073248,32.8504529 22.0123223,34.4002836 C21.8710316,34.500045 21.7247518,34.593933 21.5739769,34.6825154 C21.5650917,34.6386862 21.5558857,34.5949532 21.5463589,34.5513164 C21.6841845,34.0923168 21.758573,33.5945995 21.758573,33.0346305 C21.758573,30.4950211 21.1017323,28.5244991 19.7880509,27.1230643 C19.9757197,28.0614082 19.5065478,29.7504271 18.3805352,32.1901211 C18.3080546,32.3471623 18.2283166,32.5016116 18.1420329,32.6537137 C18.1124234,32.6201991 18.0825843,32.5869282 18.0525155,32.553901 C17.9423762,32.0874829 17.7579398,31.6192528 17.4779553,31.1343055 C16.2081506,28.9349392 14.6540489,27.5568374 12.8156501,27 C13.4473479,27.7187952 13.8855426,29.4161145 14.130234,32.0919577 C14.1459846,32.2641997 14.1541541,32.4378258 14.1554813,32.6126919 Z" id="Path-3-Copy-3" fill="#FFDA00"></path>
                            <path d="M14.1554813,32.6126919 C14.1130814,32.5984721 14.0706045,32.5845782 14.0280506,32.5710102 C13.6994581,32.22215 13.3056165,31.908869 12.8206691,31.6288845 C10.6213029,30.3590798 8.58636037,29.9426595 6.71584161,30.3796236 C7.6223056,30.6862696 8.85045292,31.9370939 10.4002836,34.1320964 C10.500045,34.273387 10.593933,34.4196669 10.6825154,34.5704417 C10.6386862,34.579327 10.5949532,34.588533 10.5513164,34.5980597 C10.0923168,34.4602342 9.5945995,34.3858457 9.03463053,34.3858457 C6.49502112,34.3858457 4.52449906,35.0426863 3.12306433,36.3563677 C4.06140817,36.168699 5.75042709,36.6378709 8.19012107,37.7638835 C8.34716233,37.8363641 8.50161163,37.9161021 8.65371368,38.0023858 C8.62019906,38.0319953 8.58692816,38.0618344 8.55390097,38.0919032 C8.08748294,38.2020425 7.61925283,38.3864789 7.13430547,38.6664633 C4.93493921,39.936268 3.55683738,41.4903698 3,43.3287686 C3.71879522,42.6970708 5.41611447,42.2588761 8.09195774,42.0141846 C8.26419975,41.998434 8.43782579,41.9902646 8.61269186,41.9889374 C8.59847209,42.0313373 8.58457821,42.0738142 8.57101024,42.1163681 C8.22215002,42.4449606 7.90886902,42.8388022 7.62888453,43.3237495 C6.35907983,45.5231158 5.94265952,47.5580583 6.3796236,49.4285771 C6.6862696,48.5221131 7.93709386,47.2939658 10.1320964,45.7441351 C10.273387,45.6443737 10.4196669,45.5504857 10.5704417,45.4619033 C10.579327,45.5057325 10.588533,45.5494655 10.5980597,45.5931023 C10.4602342,46.0521018 10.3858457,46.5498192 10.3858457,47.1097881 C10.3858457,49.6493976 11.0426863,51.6199196 12.3563677,53.0213543 C12.168699,52.0830105 12.6378709,50.3939916 13.7638835,47.9542976 C13.8363641,47.7972563 13.9161021,47.642807 14.0023858,47.490705 C14.0319953,47.5242196 14.0618344,47.5574905 14.0919032,47.5905177 C14.2020425,48.0569357 14.3864789,48.5251658 14.6664633,49.0101132 C15.936268,51.2094795 17.4903698,52.5875813 19.3287686,53.1444187 C18.6970708,52.4256235 18.2588761,50.7283042 18.0141846,48.0524609 C17.998434,47.8802189 17.9902646,47.7065929 17.9889374,47.5317268 C18.0313373,47.5459466 18.0738142,47.5598405 18.1163681,47.5734084 C18.4449606,47.9222687 18.8388022,48.2355497 19.3237495,48.5155341 C21.5231158,49.7853388 23.5580583,50.2017592 25.4285771,49.7647951 C24.5221131,49.4581491 23.2939658,48.2073248 21.7441351,46.0123223 C21.6443737,45.8710316 21.5504857,45.7247518 21.4619033,45.5739769 C21.5057325,45.5650917 21.5494655,45.5558857 21.5931023,45.5463589 C22.0521018,45.6841845 22.5498192,45.758573 23.1097881,45.758573 C25.6493976,45.758573 27.6199196,45.1017323 29.0213543,43.7880509 C28.0830105,43.9757197 26.3939916,43.5065478 23.9542976,42.3805352 C23.7972563,42.3080546 23.642807,42.2283166 23.490705,42.1420329 C23.5242196,42.1124234 23.5574905,42.0825843 23.5905177,42.0525155 C24.0569357,41.9423762 24.5251658,41.7579398 25.0101132,41.4779553 C27.2094795,40.2081506 28.5875813,38.6540489 29.1444187,36.8156501 C28.4256235,37.4473479 26.7283042,37.8855426 24.0524609,38.130234 C23.8802189,38.1459846 23.7065929,38.1541541 23.5317268,38.1554813 C23.5459466,38.1130814 23.5598405,38.0706045 23.5734084,38.0280506 C23.9222687,37.6994581 24.2355497,37.3056165 24.5155341,36.8206691 C25.7853388,34.6213029 26.2017592,32.5863604 25.7647951,30.7158416 C25.4581491,31.6223056 24.2073248,32.8504529 22.0123223,34.4002836 C21.8710316,34.500045 21.7247518,34.593933 21.5739769,34.6825154 C21.5650917,34.6386862 21.5558857,34.5949532 21.5463589,34.5513164 C21.6841845,34.0923168 21.758573,33.5945995 21.758573,33.0346305 C21.758573,30.4950211 21.1017323,28.5244991 19.7880509,27.1230643 C19.9757197,28.0614082 19.5065478,29.7504271 18.3805352,32.1901211 C18.3080546,32.3471623 18.2283166,32.5016116 18.1420329,32.6537137 C18.1124234,32.6201991 18.0825843,32.5869282 18.0525155,32.553901 C17.9423762,32.0874829 17.7579398,31.6192528 17.4779553,31.1343055 C16.2081506,28.9349392 14.6540489,27.5568374 12.8156501,27 C13.4473479,27.7187952 13.8855426,29.4161145 14.130234,32.0919577 C14.1459846,32.2641997 14.1541541,32.4378258 14.1554813,32.6126919 Z" id="Path-3-Copy-3" fill="#FFDA00" transform="translate(16.072209, 40.072209) rotate(-345.000000) translate(-16.072209, -40.072209) "></path>
                            <path d="M61.1554813,9.61269186 C61.1130814,9.59847209 61.0706045,9.58457821 61.0280506,9.57101024 C60.6994581,9.22215002 60.3056165,8.90886902 59.8206691,8.62888453 C57.6213029,7.35907983 55.5863604,6.94265952 53.7158416,7.3796236 C54.6223056,7.6862696 55.8504529,8.93709386 57.4002836,11.1320964 C57.500045,11.273387 57.593933,11.4196669 57.6825154,11.5704417 C57.6386862,11.579327 57.5949532,11.588533 57.5513164,11.5980597 C57.0923168,11.4602342 56.5945995,11.3858457 56.0346305,11.3858457 C53.4950211,11.3858457 51.5244991,12.0426863 50.1230643,13.3563677 C51.0614082,13.168699 52.7504271,13.6378709 55.1901211,14.7638835 C55.3471623,14.8363641 55.5016116,14.9161021 55.6537137,15.0023858 C55.6201991,15.0319953 55.5869282,15.0618344 55.553901,15.0919032 C55.0874829,15.2020425 54.6192528,15.3864789 54.1343055,15.6664633 C51.9349392,16.936268 50.5568374,18.4903698 50,20.3287686 C50.7187952,19.6970708 52.4161145,19.2588761 55.0919577,19.0141846 C55.2641997,18.998434 55.4378258,18.9902646 55.6126919,18.9889374 C55.5984721,19.0313373 55.5845782,19.0738142 55.5710102,19.1163681 C55.22215,19.4449606 54.908869,19.8388022 54.6288845,20.3237495 C53.3590798,22.5231158 52.9426595,24.5580583 53.3796236,26.4285771 C53.6862696,25.5221131 54.9370939,24.2939658 57.1320964,22.7441351 C57.273387,22.6443737 57.4196669,22.5504857 57.5704417,22.4619033 C57.579327,22.5057325 57.588533,22.5494655 57.5980597,22.5931023 C57.4602342,23.0521018 57.3858457,23.5498192 57.3858457,24.1097881 C57.3858457,26.6493976 58.0426863,28.6199196 59.3563677,30.0213543 C59.168699,29.0830105 59.6378709,27.3939916 60.7638835,24.9542976 C60.8363641,24.7972563 60.9161021,24.642807 61.0023858,24.490705 C61.0319953,24.5242196 61.0618344,24.5574905 61.0919032,24.5905177 C61.2020425,25.0569357 61.3864789,25.5251658 61.6664633,26.0101132 C62.936268,28.2094795 64.4903698,29.5875813 66.3287686,30.1444187 C65.6970708,29.4256235 65.2588761,27.7283042 65.0141846,25.0524609 C64.998434,24.8802189 64.9902646,24.7065929 64.9889374,24.5317268 C65.0313373,24.5459466 65.0738142,24.5598405 65.1163681,24.5734084 C65.4449606,24.9222687 65.8388022,25.2355497 66.3237495,25.5155341 C68.5231158,26.7853388 70.5580583,27.2017592 72.4285771,26.7647951 C71.5221131,26.4581491 70.2939658,25.2073248 68.7441351,23.0123223 C68.6443737,22.8710316 68.5504857,22.7247518 68.4619033,22.5739769 C68.5057325,22.5650917 68.5494655,22.5558857 68.5931023,22.5463589 C69.0521018,22.6841845 69.5498192,22.758573 70.1097881,22.758573 C72.6493976,22.758573 74.6199196,22.1017323 76.0213543,20.7880509 C75.0830105,20.9757197 73.3939916,20.5065478 70.9542976,19.3805352 C70.7972563,19.3080546 70.642807,19.2283166 70.490705,19.1420329 C70.5242196,19.1124234 70.5574905,19.0825843 70.5905177,19.0525155 C71.0569357,18.9423762 71.5251658,18.7579398 72.0101132,18.4779553 C74.2094795,17.2081506 75.5875813,15.6540489 76.1444187,13.8156501 C75.4256235,14.4473479 73.7283042,14.8855426 71.0524609,15.130234 C70.8802189,15.1459846 70.7065929,15.1541541 70.5317268,15.1554813 C70.5459466,15.1130814 70.5598405,15.0706045 70.5734084,15.0280506 C70.9222687,14.6994581 71.2355497,14.3056165 71.5155341,13.8206691 C72.7853388,11.6213029 73.2017592,9.58636037 72.7647951,7.71584161 C72.4581491,8.6223056 71.2073248,9.85045292 69.0123223,11.4002836 C68.8710316,11.500045 68.7247518,11.593933 68.5739769,11.6825154 C68.5650917,11.6386862 68.5558857,11.5949532 68.5463589,11.5513164 C68.6841845,11.0923168 68.758573,10.5945995 68.758573,10.0346305 C68.758573,7.49502112 68.1017323,5.52449906 66.7880509,4.12306433 C66.9757197,5.06140817 66.5065478,6.75042709 65.3805352,9.19012107 C65.3080546,9.34716233 65.2283166,9.50161163 65.1420329,9.65371368 C65.1124234,9.62019906 65.0825843,9.58692816 65.0525155,9.55390097 C64.9423762,9.08748294 64.7579398,8.61925283 64.4779553,8.13430547 C63.2081506,5.93493921 61.6540489,4.55683738 59.8156501,4 C60.4473479,4.71879522 60.8855426,6.41611447 61.130234,9.09195774 C61.1459846,9.26419975 61.1541541,9.43782579 61.1554813,9.61269186 Z" id="Path-3-Copy-4" fill="#FFDA00"></path>
                            <path d="M61.1554813,9.61269186 C61.1130814,9.59847209 61.0706045,9.58457821 61.0280506,9.57101024 C60.6994581,9.22215002 60.3056165,8.90886902 59.8206691,8.62888453 C57.6213029,7.35907983 55.5863604,6.94265952 53.7158416,7.3796236 C54.6223056,7.6862696 55.8504529,8.93709386 57.4002836,11.1320964 C57.500045,11.273387 57.593933,11.4196669 57.6825154,11.5704417 C57.6386862,11.579327 57.5949532,11.588533 57.5513164,11.5980597 C57.0923168,11.4602342 56.5945995,11.3858457 56.0346305,11.3858457 C53.4950211,11.3858457 51.5244991,12.0426863 50.1230643,13.3563677 C51.0614082,13.168699 52.7504271,13.6378709 55.1901211,14.7638835 C55.3471623,14.8363641 55.5016116,14.9161021 55.6537137,15.0023858 C55.6201991,15.0319953 55.5869282,15.0618344 55.553901,15.0919032 C55.0874829,15.2020425 54.6192528,15.3864789 54.1343055,15.6664633 C51.9349392,16.936268 50.5568374,18.4903698 50,20.3287686 C50.7187952,19.6970708 52.4161145,19.2588761 55.0919577,19.0141846 C55.2641997,18.998434 55.4378258,18.9902646 55.6126919,18.9889374 C55.5984721,19.0313373 55.5845782,19.0738142 55.5710102,19.1163681 C55.22215,19.4449606 54.908869,19.8388022 54.6288845,20.3237495 C53.3590798,22.5231158 52.9426595,24.5580583 53.3796236,26.4285771 C53.6862696,25.5221131 54.9370939,24.2939658 57.1320964,22.7441351 C57.273387,22.6443737 57.4196669,22.5504857 57.5704417,22.4619033 C57.579327,22.5057325 57.588533,22.5494655 57.5980597,22.5931023 C57.4602342,23.0521018 57.3858457,23.5498192 57.3858457,24.1097881 C57.3858457,26.6493976 58.0426863,28.6199196 59.3563677,30.0213543 C59.168699,29.0830105 59.6378709,27.3939916 60.7638835,24.9542976 C60.8363641,24.7972563 60.9161021,24.642807 61.0023858,24.490705 C61.0319953,24.5242196 61.0618344,24.5574905 61.0919032,24.5905177 C61.2020425,25.0569357 61.3864789,25.5251658 61.6664633,26.0101132 C62.936268,28.2094795 64.4903698,29.5875813 66.3287686,30.1444187 C65.6970708,29.4256235 65.2588761,27.7283042 65.0141846,25.0524609 C64.998434,24.8802189 64.9902646,24.7065929 64.9889374,24.5317268 C65.0313373,24.5459466 65.0738142,24.5598405 65.1163681,24.5734084 C65.4449606,24.9222687 65.8388022,25.2355497 66.3237495,25.5155341 C68.5231158,26.7853388 70.5580583,27.2017592 72.4285771,26.7647951 C71.5221131,26.4581491 70.2939658,25.2073248 68.7441351,23.0123223 C68.6443737,22.8710316 68.5504857,22.7247518 68.4619033,22.5739769 C68.5057325,22.5650917 68.5494655,22.5558857 68.5931023,22.5463589 C69.0521018,22.6841845 69.5498192,22.758573 70.1097881,22.758573 C72.6493976,22.758573 74.6199196,22.1017323 76.0213543,20.7880509 C75.0830105,20.9757197 73.3939916,20.5065478 70.9542976,19.3805352 C70.7972563,19.3080546 70.642807,19.2283166 70.490705,19.1420329 C70.5242196,19.1124234 70.5574905,19.0825843 70.5905177,19.0525155 C71.0569357,18.9423762 71.5251658,18.7579398 72.0101132,18.4779553 C74.2094795,17.2081506 75.5875813,15.6540489 76.1444187,13.8156501 C75.4256235,14.4473479 73.7283042,14.8855426 71.0524609,15.130234 C70.8802189,15.1459846 70.7065929,15.1541541 70.5317268,15.1554813 C70.5459466,15.1130814 70.5598405,15.0706045 70.5734084,15.0280506 C70.9222687,14.6994581 71.2355497,14.3056165 71.5155341,13.8206691 C72.7853388,11.6213029 73.2017592,9.58636037 72.7647951,7.71584161 C72.4581491,8.6223056 71.2073248,9.85045292 69.0123223,11.4002836 C68.8710316,11.500045 68.7247518,11.593933 68.5739769,11.6825154 C68.5650917,11.6386862 68.5558857,11.5949532 68.5463589,11.5513164 C68.6841845,11.0923168 68.758573,10.5945995 68.758573,10.0346305 C68.758573,7.49502112 68.1017323,5.52449906 66.7880509,4.12306433 C66.9757197,5.06140817 66.5065478,6.75042709 65.3805352,9.19012107 C65.3080546,9.34716233 65.2283166,9.50161163 65.1420329,9.65371368 C65.1124234,9.62019906 65.0825843,9.58692816 65.0525155,9.55390097 C64.9423762,9.08748294 64.7579398,8.61925283 64.4779553,8.13430547 C63.2081506,5.93493921 61.6540489,4.55683738 59.8156501,4 C60.4473479,4.71879522 60.8855426,6.41611447 61.130234,9.09195774 C61.1459846,9.26419975 61.1541541,9.43782579 61.1554813,9.61269186 Z" id="Path-3-Copy-4" fill="#FFDA00" transform="translate(63.072209, 17.072209) rotate(-345.000000) translate(-63.072209, -17.072209) "></path>
                            <path d="M35.5706755,14.9998571 C35.497463,14.9753036 35.4241175,14.9513129 35.3506389,14.9278848 C34.7832534,14.3255026 34.1032011,13.7845556 33.2658352,13.3011021 C29.4681562,11.1085112 25.9543902,10.3894719 22.7245371,11.1439844 C24.2897422,11.6734747 26.4104028,13.8332919 29.0865188,17.6234359 C29.2587784,17.8674046 29.4208962,18.1199882 29.5738528,18.3803335 C29.4981721,18.3956757 29.4226577,18.4115719 29.3473094,18.4280219 C28.554748,18.1900364 27.6953319,18.0615886 26.728425,18.0615886 C22.343243,18.0615886 18.9407128,19.1957654 16.5208342,21.4641189 C18.1410867,21.1400684 21.0575413,21.9501946 25.2701978,23.8944976 C25.5413633,24.019651 25.8080532,24.1573359 26.0706901,24.3063232 C26.0128199,24.3574503 25.9553706,24.408974 25.898342,24.4608943 C25.0929709,24.6510734 24.2844709,24.9695425 23.447105,25.4529959 C19.649426,27.6455869 17.2698367,30.3290779 16.3083372,33.503469 C17.5494918,32.4127067 20.4802786,31.6560694 25.1006977,31.2335569 C25.3981105,31.2063601 25.6979133,31.1922538 25.9998571,31.1899621 C25.9753036,31.2631746 25.9513129,31.3365201 25.9278848,31.4099987 C25.3255026,31.9773842 24.7845556,32.6574365 24.3011021,33.4948024 C22.1085112,37.2924814 21.3894719,40.8062475 22.1439844,44.0361005 C22.6734747,42.4708954 24.8332919,40.3502348 28.6234359,37.6741188 C28.8674046,37.5018592 29.1199882,37.3397414 29.3803335,37.1867848 C29.3956757,37.2624655 29.4115719,37.3379799 29.4280219,37.4133282 C29.1900364,38.2058896 29.0615886,39.0653057 29.0615886,40.0322126 C29.0615886,44.4173946 30.1957654,47.8199248 32.4641189,50.2398034 C32.1400684,48.6195509 32.9501946,45.7030964 34.8944976,41.4904398 C35.019651,41.2192743 35.1573359,40.9525844 35.3063232,40.6899475 C35.3574503,40.7478177 35.408974,40.805267 35.4608943,40.8622956 C35.6510734,41.6676667 35.9695425,42.4761667 36.4529959,43.3135326 C38.6455869,47.1112116 41.3290779,49.4908009 44.503469,50.4523004 C43.4127067,49.2111458 42.6560694,46.280359 42.2335569,41.65994 C42.2063601,41.3625271 42.1922538,41.0627244 42.1899621,40.7607805 C42.2631746,40.785334 42.3365201,40.8093247 42.4099987,40.8327528 C42.9773842,41.435135 43.6574365,41.976082 44.4948024,42.4595355 C48.2924814,44.6521265 51.8062475,45.3711657 55.0361005,44.6166532 C53.4708954,44.0871629 51.3502348,41.9273458 48.6741188,38.1372017 C48.5018592,37.893233 48.3397414,37.6406494 48.1867848,37.3803041 C48.2624655,37.3649619 48.3379799,37.3490657 48.4133282,37.3326157 C49.2058896,37.5706013 50.0653057,37.699049 51.0322126,37.699049 C55.4173946,37.699049 58.8199248,36.5648722 61.2398034,34.2965187 C59.6195509,34.6205692 56.7030964,33.810443 52.4904398,31.86614 C52.2192743,31.7409867 51.9525844,31.6033017 51.6899475,31.4543144 C51.7478177,31.4031873 51.805267,31.3516636 51.8622956,31.2997434 C52.6676667,31.1095642 53.4761667,30.7910951 54.3135326,30.3076417 C58.1112116,28.1150507 60.4908009,25.4315597 61.4523004,22.2571686 C60.2111458,23.3479309 57.280359,24.1045682 52.65994,24.5270807 C52.3625271,24.5542775 52.0627244,24.5683838 51.7607805,24.5706755 C51.785334,24.497463 51.8093247,24.4241175 51.8327528,24.3506389 C52.435135,23.7832534 52.976082,23.1032011 53.4595355,22.2658352 C55.6521265,18.4681562 56.3711657,14.9543902 55.6166532,11.7245371 C55.0871629,13.2897422 52.9273458,15.4104028 49.1372017,18.0865188 C48.893233,18.2587784 48.6406494,18.4208962 48.3803041,18.5738528 C48.3649619,18.4981721 48.3490657,18.4226577 48.3326157,18.3473094 C48.5706013,17.554748 48.699049,16.6953319 48.699049,15.728425 C48.699049,11.343243 47.5648722,7.94071278 45.2965187,5.52083424 C45.6205692,7.14108674 44.810443,10.0575413 42.86614,14.2701978 C42.7409867,14.5413633 42.6033017,14.8080532 42.4543144,15.0706901 C42.4031873,15.0128199 42.3516636,14.9553706 42.2997434,14.898342 C42.1095642,14.0929709 41.7910951,13.2844709 41.3076417,12.447105 C39.1150507,8.649426 36.4315597,6.26983673 33.2571686,5.3083372 C34.3479309,6.54949177 35.1045682,9.48027859 35.5270807,14.1006977 C35.5542775,14.3981105 35.5683838,14.6979133 35.5706755,14.9998571 Z" id="Path-3-Copy-2" fill="#EB3B8C"></path>
                            <path d="M35.5706755,14.9998571 C35.497463,14.9753036 35.4241175,14.9513129 35.3506389,14.9278848 C34.7832534,14.3255026 34.1032011,13.7845556 33.2658352,13.3011021 C29.4681562,11.1085112 25.9543902,10.3894719 22.7245371,11.1439844 C24.2897422,11.6734747 26.4104028,13.8332919 29.0865188,17.6234359 C29.2587784,17.8674046 29.4208962,18.1199882 29.5738528,18.3803335 C29.4981721,18.3956757 29.4226577,18.4115719 29.3473094,18.4280219 C28.554748,18.1900364 27.6953319,18.0615886 26.728425,18.0615886 C22.343243,18.0615886 18.9407128,19.1957654 16.5208342,21.4641189 C18.1410867,21.1400684 21.0575413,21.9501946 25.2701978,23.8944976 C25.5413633,24.019651 25.8080532,24.1573359 26.0706901,24.3063232 C26.0128199,24.3574503 25.9553706,24.408974 25.898342,24.4608943 C25.0929709,24.6510734 24.2844709,24.9695425 23.447105,25.4529959 C19.649426,27.6455869 17.2698367,30.3290779 16.3083372,33.503469 C17.5494918,32.4127067 20.4802786,31.6560694 25.1006977,31.2335569 C25.3981105,31.2063601 25.6979133,31.1922538 25.9998571,31.1899621 C25.9753036,31.2631746 25.9513129,31.3365201 25.9278848,31.4099987 C25.3255026,31.9773842 24.7845556,32.6574365 24.3011021,33.4948024 C22.1085112,37.2924814 21.3894719,40.8062475 22.1439844,44.0361005 C22.6734747,42.4708954 24.8332919,40.3502348 28.6234359,37.6741188 C28.8674046,37.5018592 29.1199882,37.3397414 29.3803335,37.1867848 C29.3956757,37.2624655 29.4115719,37.3379799 29.4280219,37.4133282 C29.1900364,38.2058896 29.0615886,39.0653057 29.0615886,40.0322126 C29.0615886,44.4173946 30.1957654,47.8199248 32.4641189,50.2398034 C32.1400684,48.6195509 32.9501946,45.7030964 34.8944976,41.4904398 C35.019651,41.2192743 35.1573359,40.9525844 35.3063232,40.6899475 C35.3574503,40.7478177 35.408974,40.805267 35.4608943,40.8622956 C35.6510734,41.6676667 35.9695425,42.4761667 36.4529959,43.3135326 C38.6455869,47.1112116 41.3290779,49.4908009 44.503469,50.4523004 C43.4127067,49.2111458 42.6560694,46.280359 42.2335569,41.65994 C42.2063601,41.3625271 42.1922538,41.0627244 42.1899621,40.7607805 C42.2631746,40.785334 42.3365201,40.8093247 42.4099987,40.8327528 C42.9773842,41.435135 43.6574365,41.976082 44.4948024,42.4595355 C48.2924814,44.6521265 51.8062475,45.3711657 55.0361005,44.6166532 C53.4708954,44.0871629 51.3502348,41.9273458 48.6741188,38.1372017 C48.5018592,37.893233 48.3397414,37.6406494 48.1867848,37.3803041 C48.2624655,37.3649619 48.3379799,37.3490657 48.4133282,37.3326157 C49.2058896,37.5706013 50.0653057,37.699049 51.0322126,37.699049 C55.4173946,37.699049 58.8199248,36.5648722 61.2398034,34.2965187 C59.6195509,34.6205692 56.7030964,33.810443 52.4904398,31.86614 C52.2192743,31.7409867 51.9525844,31.6033017 51.6899475,31.4543144 C51.7478177,31.4031873 51.805267,31.3516636 51.8622956,31.2997434 C52.6676667,31.1095642 53.4761667,30.7910951 54.3135326,30.3076417 C58.1112116,28.1150507 60.4908009,25.4315597 61.4523004,22.2571686 C60.2111458,23.3479309 57.280359,24.1045682 52.65994,24.5270807 C52.3625271,24.5542775 52.0627244,24.5683838 51.7607805,24.5706755 C51.785334,24.497463 51.8093247,24.4241175 51.8327528,24.3506389 C52.435135,23.7832534 52.976082,23.1032011 53.4595355,22.2658352 C55.6521265,18.4681562 56.3711657,14.9543902 55.6166532,11.7245371 C55.0871629,13.2897422 52.9273458,15.4104028 49.1372017,18.0865188 C48.893233,18.2587784 48.6406494,18.4208962 48.3803041,18.5738528 C48.3649619,18.4981721 48.3490657,18.4226577 48.3326157,18.3473094 C48.5706013,17.554748 48.699049,16.6953319 48.699049,15.728425 C48.699049,11.343243 47.5648722,7.94071278 45.2965187,5.52083424 C45.6205692,7.14108674 44.810443,10.0575413 42.86614,14.2701978 C42.7409867,14.5413633 42.6033017,14.8080532 42.4543144,15.0706901 C42.4031873,15.0128199 42.3516636,14.9553706 42.2997434,14.898342 C42.1095642,14.0929709 41.7910951,13.2844709 41.3076417,12.447105 C39.1150507,8.649426 36.4315597,6.26983673 33.2571686,5.3083372 C34.3479309,6.54949177 35.1045682,9.48027859 35.5270807,14.1006977 C35.5542775,14.3981105 35.5683838,14.6979133 35.5706755,14.9998571 Z" id="Path-3-Copy-2" fill="#EB3B8C" transform="translate(38.880319, 27.880319) rotate(14.000000) translate(-38.880319, -27.880319) "></path>
                            <circle id="Oval-5" fill="#FF5EA8" cx="38.6890582" cy="27.3109418" r="8.11712227"></circle>
                        </g>
                    </g>
                </g>
            </g>
        </g>
    </g>
</svg>