<?xml version="1.0" encoding="UTF-8"?>
<svg width="142px" height="142px" viewBox="0 0 142 142" version="1.1" xmlns="http://www.w3.org/2000/svg" xmlns:xlink="http://www.w3.org/1999/xlink">
    <!-- Generator: Sketch 46 (44423) - http://www.bohemiancoding.com/sketch -->
    <title>11</title>
    <desc>Created with Sketch.</desc>
    <defs>
        <rect id="path-1" x="0" y="0" width="142" height="142" rx="6"></rect>
        <path d="M157.323741,0 C134.01652,32.9521727 109.789277,53.0896115 84.6420127,60.4123165 C59.4947481,67.7350216 31.2807438,85.7366715 -1.42108547e-14,114.417266" id="path-3"></path>
    </defs>
    <g id="Page-1" stroke="none" stroke-width="1" fill="none" fill-rule="evenodd">
        <g id="cards-copy" transform="translate(-32.000000, -846.000000)">
            <g id="11" transform="translate(32.000000, 846.000000)">
                <mask id="mask-2" fill="white">
                    <use xlink:href="#path-1"></use>
                </mask>
                <use id="Mask" fill="#54348C" xlink:href="#path-1"></use>
                <g id="Group-8" mask="url(#mask-2)">
                    <g transform="translate(-9.194245, 11.237410)">
                        <g id="Path-2" stroke-linecap="round" stroke-linejoin="round">
                            <use stroke="#EB3B8C" stroke-width="8.09999979" xlink:href="#path-3"></use>
                            <use stroke="#FF55A3" stroke-width="1.79999995" xlink:href="#path-3"></use>
                        </g>
                        <g id="Group-7" stroke-width="1" fill-rule="evenodd" transform="translate(40.480963, 20.306763)">
                            <g id="Group-2" transform="translate(0.000000, 0.000000)">
                                <ellipse id="Oval" fill="#F64798" cx="39.952705" cy="40.8827263" rx="13.7458084" ry="13.6758298"></ellipse>
                                <path d="M40.0799889,9.88393492 C43.9098383,17.2415075 45.8734292,22.1801314 45.9707614,24.6998066 C46.1926851,30.4448221 43.9698864,32.6676208 40.0799889,33.2233204 C36.1900913,33.7790201 32.8558934,30.4448221 32.8558934,25.9992249 C32.8558934,23.4117318 35.2639252,18.0399684 40.0799889,9.88393492 Z M66.5644128,25.4899044 C62.1074928,32.4854376 58.8123145,36.6552691 56.6788778,37.999399 C51.8145103,41.0640983 48.7781109,40.2504975 46.3519121,37.1595972 C43.9257133,34.0686969 45.1461144,29.5140978 48.9961146,27.2912992 C51.2369494,25.9975526 57.0930488,25.3970877 66.5644128,25.4899044 Z M66.2914588,56.2290732 C58.0046893,55.8670338 52.7459201,55.0982414 50.5151512,53.922696 C45.42886,51.2423798 44.6152592,48.2059804 46.078958,44.5593804 C47.5426568,40.9127805 52.0972559,39.6923793 55.947256,41.915178 C58.1880908,43.2089245 61.6361584,47.9802229 66.2914588,56.2290732 Z M39.5340807,71.3622724 C35.7042313,64.0046998 33.7406404,59.0660759 33.6433081,56.5464007 C33.4213845,50.8013852 35.6441831,48.5785865 39.5340807,48.0228869 C43.4239783,47.4671872 46.7581762,50.8013852 46.7581762,55.2469824 C46.7581762,57.8344755 44.3501444,63.2062389 39.5340807,71.3622724 Z M13.0496567,55.7563029 C17.5065768,48.7607697 20.8017551,44.5909382 22.9351917,43.2468083 C27.7995593,40.182109 30.8359587,40.9957098 33.2621575,44.0866101 C35.6883563,47.1775104 34.4679552,51.7321095 30.617955,53.9549081 C28.3771202,55.2486547 22.5210208,55.8491196 13.0496567,55.7563029 Z M13.3226108,25.0171341 C21.6093803,25.3791735 26.8681495,26.1479659 29.0989184,27.3235113 C34.1852096,30.0038275 34.9988103,33.0402269 33.5351116,36.6868269 C32.0714128,40.3334268 27.5168137,41.553828 23.6668136,39.3310293 C21.4259788,38.0372828 17.9779112,33.2659844 13.3226108,25.0171341 Z" id="Path-6" fill="#FFBC00" transform="translate(39.807035, 40.623104) rotate(-327.000000) translate(-39.807035, -40.623104) "></path>
                                <path d="M40.1071022,6.83052629 C44.3173814,14.9189473 46.4760213,20.3481387 46.5830219,23.1181005 C46.8269898,29.4337846 44.3833943,31.8773801 40.1071022,32.488279 C35.83081,33.0991779 32.1654168,29.4337846 32.1654168,24.5465936 C32.1654168,21.7020775 34.8126453,15.7967217 40.1071022,6.83052629 Z M69.2222989,23.9866809 C64.3226604,31.6771002 60.7001627,36.2611329 58.3548058,37.738779 C53.0072468,41.1079035 49.6692333,40.2134855 47.0020333,36.8155573 C44.3348333,33.4176291 45.6764603,28.4106088 49.9088919,25.9670133 C52.3723151,24.5447553 58.8101175,23.8846445 69.2222989,23.9866809 Z M68.9222316,57.7792583 C59.8123138,57.3812565 54.0311762,56.5360978 51.5788187,55.2437822 C45.9872918,52.2972225 45.0928738,48.959209 46.7019659,44.9503819 C48.311058,40.9415549 53.3180783,39.5999279 57.5505099,42.0435234 C60.0139331,43.4657814 63.804507,48.7110264 68.9222316,57.7792583 Z M39.5069674,74.415681 C35.2966882,66.32726 33.1380483,60.8980686 33.0310477,58.1281068 C32.7870798,51.8124227 35.2306753,49.3688272 39.5069674,48.7579283 C43.7832595,48.1470294 47.4486528,51.8124227 47.4486528,56.6996137 C47.4486528,59.5441298 44.8014243,65.4494856 39.5069674,74.415681 Z M10.3917706,57.2595264 C15.2914091,49.5691071 18.9139069,44.9850744 21.2592638,43.5074283 C26.6068228,40.1383038 29.9448363,41.0327218 32.6120363,44.43065 C35.2792363,47.8285782 33.9376093,52.8355985 29.7051777,55.279194 C27.2417545,56.701452 20.8039521,57.3615628 10.3917706,57.2595264 Z M10.691838,23.466949 C19.8017557,23.8649508 25.5828934,24.7101095 28.0352509,26.0024251 C33.6267778,28.9489848 34.5211958,32.2869983 32.9121037,36.2958254 C31.3030116,40.3046524 26.2959913,41.6462794 22.0635597,39.2026839 C19.6001365,37.7804259 15.8095626,32.5351809 10.691838,23.466949 Z" id="Path-6" fill="#FFDA00" transform="translate(39.807035, 40.623104) rotate(5.000000) translate(-39.807035, -40.623104) "></path>
                            </g>
                            <circle id="Oval-4" fill="#EB3B8C" cx="39.6351764" cy="40.6351764" r="10.186219"></circle>
                        </g>
                    </g>
                </g>
            </g>
        </g>
    </g>
</svg>