<?xml version="1.0" encoding="UTF-8"?>
<svg width="142px" height="142px" viewBox="0 0 142 142" version="1.1" xmlns="http://www.w3.org/2000/svg" xmlns:xlink="http://www.w3.org/1999/xlink">
    <!-- Generator: Sketch 46 (44423) - http://www.bohemiancoding.com/sketch -->
    <title>2</title>
    <desc>Created with Sketch.</desc>
    <defs>
        <rect id="path-1" x="0" y="0" width="142" height="142" rx="6"></rect>
        <path d="M157.323741,0 C134.01652,32.9521727 109.789277,53.0896115 84.6420127,60.4123165 C59.4947481,67.7350216 31.2807438,85.7366715 -1.42108547e-14,114.417266" id="path-3"></path>
        <ellipse id="path-4" cx="43.2410282" cy="43.0208921" rx="28.5206782" ry="28.375482"></ellipse>
    </defs>
    <g id="Page-1" stroke="none" stroke-width="1" fill="none" fill-rule="evenodd">
        <g id="cards-copy" transform="translate(-186.000000, -76.000000)">
            <g id="2" transform="translate(186.000000, 76.000000)">
                <mask id="mask-2" fill="white">
                    <use xlink:href="#path-1"></use>
                </mask>
                <use id="Mask" fill="#FDD442" xlink:href="#path-1"></use>
                <g id="Group-8" mask="url(#mask-2)">
                    <g transform="translate(-10.215827, 7.151079)">
                        <g id="Path-2" stroke-linecap="round" stroke-linejoin="round">
                            <use stroke="#54348C" stroke-width="8.09999979" xlink:href="#path-3"></use>
                            <use stroke="#633EA5" stroke-width="1.79999995" xlink:href="#path-3"></use>
                        </g>
                        <g id="Group-7" stroke-width="1" fill-rule="evenodd" transform="translate(40.480963, 18.306763)">
                            <path d="M39.4525894,84.9463292 L39.4502408,84.9485987 L39.4502408,84.9485987 C37.9027413,86.4439605 35.4360148,86.4016944 33.9406531,84.8541949 C33.672454,84.5766447 33.4469808,84.2607863 33.2716185,83.9169653 L33.2716185,83.9169653 L33.2716185,83.9169653 C31.9374979,81.3012447 28.7700326,80.2139242 26.1106656,81.4587693 L26.0971909,81.4650767 L26.0971909,81.4650767 C24.1504842,82.3763267 21.8336526,81.5369233 20.9224026,79.5902166 C20.7585449,79.2401668 20.6477447,78.8676612 20.5936496,78.4849629 L20.5936496,78.4849629 L20.5936496,78.4849629 C20.1829615,75.5795323 17.5415017,73.5237351 14.6241784,73.8390386 L14.6040812,73.8412107 L14.6040812,73.8412107 C12.4697129,74.0718927 10.5524609,72.52865 10.321779,70.3942817 C10.2801303,70.0089303 10.2963507,69.6195168 10.3699019,69.2389639 L10.3699019,69.2389639 L10.3699019,69.2389639 C10.926541,66.3589218 9.09597145,63.5572048 6.23486871,62.9102271 L6.2182618,62.9064718 L6.2182618,62.9064718 C4.12592947,62.4333351 2.81331201,60.3536116 3.28644864,58.2612793 C3.37219733,57.8820765 3.51439166,57.5178964 3.70827725,57.1809157 L3.70827725,57.1809157 L3.70827725,57.1809157 C5.17137975,54.6379865 4.34951073,51.3927025 1.85240402,49.8526974 L1.84673588,49.8492017 L1.84673588,49.8492017 C0.0208430899,48.7231448 -0.546485959,46.3301167 0.579570978,44.5042239 C0.784054164,44.172656 1.03725215,43.8737351 1.33066594,43.6174949 L1.33196958,43.6163564 L1.33196958,43.6163564 C3.54227592,41.6860816 3.81882428,38.3488476 1.95639975,36.0810756 L1.95639975,36.0810756 L1.95639975,36.0810756 C0.595082194,34.423474 0.835267849,31.9761565 2.49286943,30.614839 C2.79367196,30.3678027 3.12990215,30.1673891 3.49028908,30.0203165 L3.50188194,30.0155855 L3.50188194,30.0155855 C6.21781553,28.9072229 7.56238704,25.8421019 6.53851178,23.0932035 L6.53851178,23.0932035 L6.53851178,23.0932035 C5.7895384,21.0823612 6.81248531,18.8450885 8.82332765,18.0961151 C9.1871201,17.9606142 9.56916594,17.8804003 9.95673552,17.858146 L9.97638989,17.8570174 L9.97638989,17.8570174 C12.9052264,17.6888431 15.172011,15.2266169 15.0979373,12.2938913 L15.0979373,12.2938913 L15.0979373,12.2938913 C15.0436999,10.1465226 16.7405182,8.36176816 18.8878869,8.30753076 C19.2747694,8.29775903 19.6609438,8.3457841 20.0336482,8.45001887 L20.051514,8.45501541 L20.051514,8.45501541 C22.8782723,9.24557879 25.8227192,7.65222821 26.7071299,4.8534122 L26.7071299,4.8534122 L26.7071299,4.8534122 C27.3551778,2.80259215 29.5430427,1.6654207 31.5938627,2.31346867 C31.962058,2.42981639 32.3109019,2.60027803 32.6289457,2.81925922 L32.636846,2.82469876 L32.636846,2.82469876 C35.0562485,4.49051855 38.3605806,3.93915961 40.1080532,1.57805745 L40.1080532,1.57805745 L40.1080532,1.57805745 C41.3887589,-0.152371323 43.8297656,-0.516943945 45.5601944,0.763761712 C45.870445,0.993380916 46.1448709,1.26780687 46.3744901,1.57805745 L46.3744901,1.57805745 L46.3744901,1.57805745 C48.1219628,3.93915961 51.4262949,4.49051855 53.8456974,2.82469876 L53.8535976,2.81925922 L53.8535976,2.81925922 C55.6250773,1.59955068 58.0499144,2.04684954 59.2696229,3.81832918 C59.4886041,4.13637296 59.6590658,4.48521686 59.7754135,4.8534122 L59.7754135,4.8534122 L59.7754135,4.8534122 C60.6598241,7.65222821 63.604271,9.24557879 66.4310294,8.45501541 L66.4488951,8.45001887 L66.4488951,8.45001887 C68.5175699,7.87146976 70.6635688,9.07945527 71.2421179,11.14813 C71.3463527,11.5208345 71.3943777,11.9070089 71.384606,12.2938913 L71.384606,12.2938913 L71.384606,12.2938913 C71.3105324,15.2266169 73.577317,17.6888431 76.5061535,17.8570174 L76.5258078,17.858146 L76.5258078,17.858146 C78.6680769,17.9811555 80.3050102,19.8175266 80.1820007,21.9597956 C80.1597464,22.3473652 80.0795324,22.729411 79.9440316,23.0932035 L79.9440316,23.0932035 L79.9440316,23.0932035 C78.9201563,25.8421019 80.2647278,28.9072229 82.9806614,30.0155855 L82.9922543,30.0203165 L82.9922543,30.0203165 C84.9782015,30.8307744 85.9311239,33.0977087 85.120666,35.083656 C84.9735934,35.4440429 84.7731799,35.7802731 84.5261436,36.0810756 L84.5261436,36.0810756 L84.5261436,36.0810756 C82.6637191,38.3488476 82.9402674,41.6860816 85.1505738,43.6163564 L85.1518774,43.6174949 L85.1518774,43.6174949 C86.7676613,45.0285694 86.933611,47.4823229 85.5225365,49.0981068 C85.2662964,49.3915205 84.9673754,49.6447185 84.6358075,49.8492017 L84.6301393,49.8526974 L84.6301393,49.8526974 C82.1330326,51.3927025 81.3111636,54.6379865 82.7742661,57.1809157 L82.7742661,57.1809157 L82.7742661,57.1809157 C83.8440711,59.0402785 83.204008,61.4148382 81.3446452,62.4846432 C81.0076645,62.6785287 80.6434844,62.8207231 80.2642816,62.9064718 L80.2476746,62.9102271 L80.2476746,62.9102271 C77.3865719,63.5572048 75.5560024,66.3589218 76.1126414,69.2389639 L76.1126414,69.2389639 L76.1126414,69.2389639 C76.5200239,71.3467545 75.1415707,73.3857053 73.03378,73.7930877 C72.6532271,73.866639 72.2638135,73.8828594 71.8784621,73.8412107 L71.858365,73.8390386 L71.858365,73.8390386 C68.9410417,73.5237351 66.2995818,75.5795323 65.8888938,78.4849629 L65.8888938,78.4849629 L65.8888938,78.4849629 C65.5880586,80.6132348 63.6188781,82.094665 61.4906062,81.7938298 C61.1079079,81.7397347 60.7354023,81.6289345 60.3853525,81.4650767 L60.3718778,81.4587693 L60.3718778,81.4587693 C57.7125108,80.2139242 54.5450455,81.3012447 53.2109249,83.9169653 L53.2109249,83.9169653 L53.2109249,83.9169653 C52.2331808,85.8339624 49.8865294,86.5953774 47.9695323,85.6176333 C47.6257112,85.442271 47.3098528,85.2167978 47.0323026,84.9485987 L47.029954,84.9463292 L47.029954,84.9463292 C44.9168489,82.9044181 41.5656944,82.9044181 39.4525894,84.9463292 Z" id="Star" fill="#633EA5"></path>
                            <ellipse id="Oval" fill="#FDD442" cx="43.2410282" cy="43.0208921" rx="34.6075883" ry="34.4314042"></ellipse>
                            <g id="Oval">
                                <use fill="#633EA5" fill-rule="evenodd" xlink:href="#path-4"></use>
                                <ellipse stroke="#00B898" stroke-width="2.69999993" cx="43.2410282" cy="43.0208921" rx="27.1706782" ry="27.0254821"></ellipse>
                            </g>
                            <ellipse id="Oval" fill="#EB3B8C" cx="43.2410282" cy="43.0208921" rx="13.3647211" ry="13.2966825"></ellipse>
                            <ellipse id="Oval" fill="#FDD442" cx="43.2410282" cy="43.0208921" rx="9.64383975" ry="9.59474384"></ellipse>
                            <g id="Group" transform="translate(39.841727, 20.431655)" fill="#EB3B8C">
                                <circle id="Oval-2" cx="3.0647482" cy="3.0647482" r="3.0647482"></circle>
                                <circle id="Oval-2-Copy" cx="3.0647482" cy="41.8848921" r="3.0647482"></circle>
                            </g>
                            <g id="Group" transform="translate(42.906475, 42.906475) rotate(-330.000000) translate(-42.906475, -42.906475) translate(39.841727, 20.431655)" fill="#00B898">
                                <circle id="Oval-2" cx="3.0647482" cy="3.0647482" r="3.0647482"></circle>
                                <circle id="Oval-2-Copy" cx="3.0647482" cy="41.8848921" r="3.0647482"></circle>
                            </g>
                            <g id="Group" transform="translate(42.906475, 42.906475) rotate(-300.000000) translate(-42.906475, -42.906475) translate(39.841727, 20.431655)" fill="#EB3B8C">
                                <circle id="Oval-2" cx="3.0647482" cy="3.0647482" r="3.0647482"></circle>
                                <circle id="Oval-2-Copy" cx="3.0647482" cy="41.8848921" r="3.0647482"></circle>
                            </g>
                            <g id="Group" transform="translate(42.906475, 42.906475) rotate(-270.000000) translate(-42.906475, -42.906475) translate(39.841727, 20.431655)" fill="#00B898">
                                <circle id="Oval-2" cx="3.0647482" cy="3.0647482" r="3.0647482"></circle>
                                <circle id="Oval-2-Copy" cx="3.0647482" cy="41.8848921" r="3.0647482"></circle>
                            </g>
                            <g id="Group" transform="translate(42.906475, 42.906475) rotate(-240.000000) translate(-42.906475, -42.906475) translate(39.841727, 20.431655)" fill="#EB3B8C">
                                <circle id="Oval-2" cx="3.0647482" cy="3.0647482" r="3.0647482"></circle>
                                <circle id="Oval-2-Copy" cx="3.0647482" cy="41.8848921" r="3.0647482"></circle>
                            </g>
                            <g id="Group" transform="translate(42.906475, 42.906475) rotate(-210.000000) translate(-42.906475, -42.906475) translate(39.841727, 20.431655)" fill="#00B898">
                                <circle id="Oval-2" cx="3.0647482" cy="3.0647482" r="3.0647482"></circle>
                                <circle id="Oval-2-Copy" cx="3.0647482" cy="41.8848921" r="3.0647482"></circle>
                            </g>
                        </g>
                    </g>
                </g>
            </g>
        </g>
    </g>
</svg>