<?xml version="1.0" encoding="UTF-8"?>
<svg width="142px" height="142px" viewBox="0 0 142 142" version="1.1" xmlns="http://www.w3.org/2000/svg" xmlns:xlink="http://www.w3.org/1999/xlink">
    <!-- Generator: Sketch 46 (44423) - http://www.bohemiancoding.com/sketch -->
    <title>3</title>
    <desc>Created with Sketch.</desc>
    <defs>
        <rect id="path-1" x="0" y="0" width="142" height="142" rx="6"></rect>
        <polygon id="path-3" points="83.4555992 91.5619656 80.2684993 97.7369225 78.2042321 91.103447 73.9911379 96.6322625 73.112425 89.7418232 68.0013494 94.456507 68.3348901 87.5184665 62.4811304 91.2757652 64.0167902 84.5009323 57.5982101 87.1866823 60.2893288 80.7809069 53.5009534 82.3135031 57.2657627 76.4714214 50.3138535 76.8042967 55.0379616 71.7034174 48.1337488 70.8264575 53.673616 66.6217683 47.0268806 64.5616191 53.2141809 61.3808773 47.0268806 58.2001355 53.673616 56.1399863 48.1337488 51.9352971 55.0379616 51.0583372 50.3138535 45.9574579 57.2657627 46.2903331 53.5009534 40.4482515 60.2893288 41.9808477 57.5982101 35.5750723 64.0167902 38.2608223 62.4811304 31.4859894 68.3348901 35.2432881 68.0013494 28.3052476 73.112425 33.0199313 73.9911379 26.1294921 78.2042321 31.6583076 80.2684993 25.024832 83.4555992 31.199789 86.6426991 25.024832 88.7069664 31.6583076 92.9200605 26.1294921 93.7987735 33.0199313 98.9098491 28.3052476 98.5763084 35.2432881 104.430068 31.4859894 102.894408 38.2608223 109.312988 35.5750723 106.62187 41.9808477 113.410245 40.4482515 109.645436 46.2903331 116.597345 45.9574579 111.873237 51.0583372 118.77745 51.9352971 113.237582 56.1399863 119.884318 58.2001355 113.697018 61.3808773 119.884318 64.5616191 113.237582 66.6217683 118.77745 70.8264575 111.873237 71.7034174 116.597345 76.8042967 109.645436 76.4714214 113.410245 82.3135031 106.62187 80.7809069 109.312988 87.1866823 102.894408 84.5009323 104.430068 91.2757652 98.5763084 87.5184665 98.9098491 94.456507 93.7987735 89.7418232 92.9200605 96.6322625 88.7069664 91.103447 86.6426991 97.7369225"></polygon>
        <ellipse id="path-4" cx="35.2410282" cy="35.0208921" rx="28.5206782" ry="28.375482"></ellipse>
    </defs>
    <g id="Page-1" stroke="none" stroke-width="1" fill="none" fill-rule="evenodd">
        <g id="cards-copy" transform="translate(-32.000000, -230.000000)">
            <g id="3" transform="translate(32.000000, 230.000000)">
                <mask id="mask-2" fill="white">
                    <use xlink:href="#path-1"></use>
                </mask>
                <use id="Mask" fill="#4A90E2" xlink:href="#path-1"></use>
                <g id="Group-8" mask="url(#mask-2)">
                    <g transform="translate(-9.194245, 11.237410)">
                        <path d="M157.323741,0 C134.01652,32.9521727 109.789277,53.0896115 84.6420127,60.4123165 C59.4947481,67.7350216 31.2807438,85.7366715 -1.42108547e-14,114.417266" id="Path-2" stroke="#FFBC00" stroke-width="8.09999979" stroke-linecap="round" stroke-linejoin="round"></path>
                        <g id="Path" stroke="none">
                            <use stroke="#FF6854" stroke-width="5.0999999" xlink:href="#path-3"></use>
                            <use stroke="#E94B35" stroke-width="2" xlink:href="#path-3"></use>
                        </g>
                        <g id="Group-7" stroke="none" stroke-width="1" fill-rule="evenodd" transform="translate(48.480963, 26.306763)">
                            <ellipse id="Oval" fill="#54348C" cx="35.2410282" cy="35.0208921" rx="34.6075883" ry="34.4314042"></ellipse>
                            <g id="Oval">
                                <use fill="#FFBC00" fill-rule="evenodd" xlink:href="#path-4"></use>
                                <ellipse stroke="#00B898" stroke-width="2.69999993" cx="35.2410282" cy="35.0208921" rx="27.1706782" ry="27.0254821"></ellipse>
                            </g>
                            <ellipse id="Oval" fill="#FA5857" cx="35.2410282" cy="35.0208921" rx="21.4266158" ry="21.3175348"></ellipse>
                            <polygon id="Star" fill="#54348C" points="35.3030803 48.8899534 31.8948084 51.3628494 29.7890252 47.720243 25.6675859 48.5958424 25.2284002 44.4133652 21.1064279 43.5402689 22.409779 39.5411094 19 37.0702837 21.8205267 33.9459328 19.7125228 30.3046059 23.5625304 28.5952922 23.1207947 24.4130826 27.3345819 24.4143621 28.6354944 20.4144118 32.4844591 22.1260632 35.3030803 19 38.1217015 22.1260632 41.9706662 20.4144118 43.2715787 24.4143621 47.4853659 24.4130826 47.0436301 28.5952922 50.8936378 30.3046059 48.7856339 33.9459328 51.6061606 37.0702837 48.1963816 39.5411094 49.4997327 43.5402689 45.3777604 44.4133652 44.9385747 48.5958424 40.8171354 47.720243 38.7113522 51.3628494"></polygon>
                            <polygon id="Star" fill="#FDD442" points="35.3030803 46.5166003 32.4848814 48.5613647 30.7436717 45.5494015 27.3357759 46.2734086 26.9726263 42.8150424 23.5642896 42.093105 24.641992 38.7863186 21.8225469 36.7432662 24.1547568 34.1598331 22.4117109 31.1489279 25.595168 29.7355472 25.2299098 26.2774021 28.7141654 26.2784601 29.7898514 22.9710199 32.9724461 24.3863337 35.3030803 21.8014847 37.6337145 24.3863337 40.8163092 22.9710199 41.8919952 26.2784601 45.3762508 26.2774021 45.0109926 29.7355472 48.1944497 31.1489279 46.4514038 34.1598331 48.7836137 36.7432662 45.9641686 38.7863186 47.041871 42.093105 43.6335343 42.8150424 43.2703847 46.2734086 39.8624889 45.5494015 38.1212792 48.5613647"></polygon>
                            <ellipse id="Oval" fill="#EB3B8C" cx="35.2410282" cy="35.0208921" rx="7.5981526" ry="7.55947109"></ellipse>
                        </g>
                    </g>
                </g>
            </g>
        </g>
    </g>
</svg>