<?xml version="1.0" encoding="UTF-8"?>
<svg width="142px" height="142px" viewBox="0 0 142 142" version="1.1" xmlns="http://www.w3.org/2000/svg" xmlns:xlink="http://www.w3.org/1999/xlink">
    <!-- Generator: Sketch 46 (44423) - http://www.bohemiancoding.com/sketch -->
    <title>4</title>
    <desc>Created with Sketch.</desc>
    <defs>
        <rect id="path-1" x="0" y="0" width="142" height="142" rx="6"></rect>
        <path d="M157.323741,2.84217094e-14 C134.01652,32.9521727 109.789277,53.0896115 84.6420127,60.4123165 C59.4947481,67.7350216 31.2807438,85.7366715 -1.42108547e-14,114.417266" id="path-3"></path>
        <ellipse id="path-4" cx="43.2702946" cy="43.131464" rx="27.2702946" ry="27.131464"></ellipse>
    </defs>
    <g id="Page-1" stroke="none" stroke-width="1" fill="none" fill-rule="evenodd">
        <g id="cards-copy" transform="translate(-186.000000, -230.000000)">
            <g id="4" transform="translate(186.000000, 230.000000)">
                <mask id="mask-2" fill="white">
                    <use xlink:href="#path-1"></use>
                </mask>
                <use id="Mask" fill="#12AEB8" xlink:href="#path-1"></use>
                <g id="Group-8" mask="url(#mask-2)">
                    <g transform="translate(-10.215827, 7.151079)">
                        <g id="Path-2" stroke-linecap="round" stroke-linejoin="round" stroke-dasharray="2,6,2,6">
                            <use stroke="#FFDA00" stroke-width="8.09999979" xlink:href="#path-3"></use>
                            <use stroke="#EB3B8C" stroke-width="1.79999995" xlink:href="#path-3"></use>
                        </g>
                        <g id="Group-7" stroke-width="1" fill-rule="evenodd" transform="translate(40.480963, 18.306763)">
                            <path d="M42.2607887,75.9688 L41.2708116,80.9059128 L41.2708116,80.9059128 C41.1622303,81.4474186 40.6352305,81.7983732 40.0937247,81.6897919 C39.6414076,81.5990944 39.3098318,81.2107496 39.291149,80.7498073 L39.0872983,75.7203919 L39.0872983,75.7203919 C39.0649316,75.1685602 38.5994519,74.7393441 38.0476202,74.7617107 C37.6445986,74.7780459 37.290847,75.0349075 37.1505552,75.4130761 L35.3988582,80.1349274 L35.3988582,80.1349274 C35.2067657,80.6527294 34.6312825,80.9167692 34.1134805,80.7246767 C33.6809471,80.5642168 33.4143183,80.1286873 33.4681177,79.6704973 L34.0548067,74.6738725 L34.0548067,74.6738725 C34.1192119,74.1253559 33.7267622,73.6284847 33.1782456,73.5640795 C32.7776055,73.5170375 32.3879322,73.7153199 32.1901184,74.066881 L29.7204934,78.4559776 L29.7204934,78.4559776 C29.4496664,78.9372999 28.8399289,79.1079401 28.3586066,78.8371131 C27.9565173,78.6108685 27.7614029,78.1389043 27.8863538,77.6947763 L29.248027,72.8548164 L29.248027,72.8548164 C29.3975998,72.3231714 29.0878692,71.7709352 28.5562242,71.6213623 C28.1678475,71.5120965 27.7518531,71.6469183 27.5014024,71.963225 L24.3758042,75.9106998 L24.3758042,75.9106998 C24.0329648,76.343689 23.4040315,76.4167697 22.9710424,76.0739303 C22.609295,75.7874999 22.4904894,75.2907463 22.6834973,74.8716383 L24.785255,70.3077648 L24.785255,70.3077648 C25.0162734,69.8061186 24.7968862,69.2121765 24.29524,68.9811581 C23.9287071,68.8123621 23.4966391,68.8804067 23.1997267,69.153686 L19.4964981,72.5621517 L19.4964981,72.5621517 C19.0901364,72.9361685 18.4575146,72.9099479 18.0834978,72.5035862 C17.7709842,72.1640466 17.731393,71.6547521 17.9876795,71.2709955 L20.7764367,67.0951836 L20.7764367,67.0951836 C21.0831609,66.6359029 20.9594894,66.0149333 20.5002087,65.7082092 C20.1645587,65.48405 19.7270586,65.4836469 19.390996,65.707187 L15.2026371,68.4931745 L15.2026371,68.4931745 C14.7427918,68.7990516 14.1220512,68.6742357 13.8161741,68.2143905 C13.560565,67.8301164 13.601138,67.3208277 13.9143641,66.9818704 L17.320448,63.2959799 L17.320448,63.2959799 C17.695273,62.8903635 17.6703115,62.2576907 17.2646951,61.8828658 C16.9682003,61.6088788 16.5360411,61.5400432 16.1690956,61.7083556 L11.5996997,63.804269 L11.5996997,63.804269 C11.097704,64.0345269 10.5040951,63.8142398 10.2738372,63.3122441 C10.0813982,62.8926991 10.2011111,62.3959504 10.5635396,62.1101245 L14.5026238,59.0036019 L14.5026238,59.0036019 C14.9362782,58.6616043 15.0105808,58.0328142 14.6685832,57.5991598 C14.418544,57.282109 14.0023642,57.146541 13.6135576,57.2554917 L8.77603889,58.6110533 L8.77603889,58.6110533 C8.24423871,58.7600735 7.69232476,58.449769 7.54330458,57.9179688 C7.41874838,57.4734719 7.61463392,57.0014781 8.01732509,56.7757979 L12.3926053,54.3237596 L12.3926053,54.3237596 C12.8743888,54.0537538 13.0460684,53.4443081 12.7760625,52.9625247 C12.5786272,52.6102322 12.1886702,52.4112732 11.787559,52.4581828 L6.80078517,53.0413813 L6.80078517,53.0413813 C6.25223894,53.1055333 5.75554891,52.7128541 5.69139694,52.1643079 C5.63777277,51.7057821 5.90499766,51.2701412 6.33803305,51.1101355 L11.0425691,49.3718186 L11.0425691,49.3718186 C11.5606205,49.1803996 11.8254083,48.6052602 11.6339894,48.0872089 C11.4940051,47.7083592 11.1398674,47.4509091 10.7363117,47.4346175 L5.7222314,47.2321983 L5.7222314,47.2321983 C5.17039614,47.2099207 4.7411049,46.7445102 4.76338256,46.1926749 C4.78200499,45.7313829 5.11399131,45.3427962 5.5667183,45.2523784 L10.4858944,44.2699296 L10.4858944,44.2699296 C11.0274835,44.1617644 11.378843,43.6350345 11.2706778,43.0934454 C11.1915742,42.6973693 10.8819706,42.3877656 10.4858944,42.308662 L5.5667183,41.3262132 L5.5667183,41.3262132 C5.02512922,41.218048 4.67376972,40.6913181 4.78193489,40.149729 C4.8723527,39.697002 5.26093939,39.3650157 5.7222314,39.3463933 L10.7363117,39.1439742 L10.7363117,39.1439742 C11.2881469,39.1216965 11.7174382,38.656286 11.6951605,38.1044508 C11.6788689,37.700895 11.4214188,37.3467573 11.0425691,37.2067731 L6.33803305,35.4684561 L6.33803305,35.4684561 C5.81998168,35.2770372 5.5551938,34.7018978 5.74661277,34.1838464 C5.90661851,33.7508111 6.34225935,33.4835862 6.80078517,33.5372103 L11.787559,34.1204089 L11.787559,34.1204089 C12.3361053,34.1845608 12.8327953,33.7918817 12.8969472,33.2433355 C12.9438568,32.8422243 12.7448978,32.4522673 12.3926053,32.254832 L8.01732509,29.8027937 L8.01732509,29.8027937 C7.53554166,29.5327879 7.36386204,28.9233422 7.63386792,28.4415588 C7.85954813,28.0388676 8.33154199,27.8429821 8.77603889,27.9675383 L13.6135576,29.3230999 L13.6135576,29.3230999 C14.1453578,29.4721201 14.6972717,29.1618156 14.8462919,28.6300154 C14.9552427,28.2412088 14.8196747,27.825029 14.5026238,27.5749898 L10.5635396,24.4684671 L10.5635396,24.4684671 C10.1298852,24.1264696 10.0555826,23.4976794 10.3975802,23.0640251 C10.683406,22.7015966 11.1801547,22.5818837 11.5996997,22.7743227 L16.1690956,24.870236 L16.1690956,24.870236 C16.6710914,25.1004939 17.2647003,24.8802069 17.4949582,24.3782112 C17.6632706,24.0112657 17.594435,23.5791064 17.320448,23.2826117 L13.9143641,19.5967212 L13.9143641,19.5967212 C13.5395391,19.1911048 13.5645006,18.558432 13.970117,18.1836071 C14.3090743,17.870381 14.818363,17.829808 15.2026371,18.0854172 L19.390996,20.8714047 L19.390996,20.8714047 C19.8508413,21.1772818 20.4715819,21.0524659 20.777459,20.5926207 C21.0009991,20.2565581 21.0005959,19.819058 20.7764367,19.483408 L17.9876795,15.3075961 L17.9876795,15.3075961 C17.6809553,14.8483154 17.8046268,14.2273458 18.2639075,13.9206217 C18.6476641,13.6643352 19.1569585,13.7039264 19.4964981,14.0164399 L23.1997267,17.4249056 L23.1997267,17.4249056 C23.6060884,17.7989225 24.2387103,17.7727018 24.6127271,17.3663401 C24.8860064,17.0694278 24.954051,16.6373598 24.785255,16.2708268 L22.6834973,11.7069533 L22.6834973,11.7069533 C22.4524788,11.2053071 22.671866,10.611365 23.1735122,10.3803466 C23.5926202,10.1873388 24.0893738,10.3061444 24.3758042,10.6678918 L27.5014024,14.6153666 L27.5014024,14.6153666 C27.8442418,15.0483557 28.4731751,15.1214365 28.9061642,14.7785971 C29.222471,14.5281464 29.3572928,14.112152 29.248027,13.7237753 L27.8863538,8.88381533 L27.8863538,8.88381533 C27.7367809,8.35217034 28.0465115,7.79993414 28.5781565,7.65036126 C29.0222845,7.52541039 29.4942487,7.72052482 29.7204934,8.12261407 L32.1901184,12.5117107 L32.1901184,12.5117107 C32.4609454,12.993033 33.0706829,13.1636732 33.5520052,12.8928463 C33.9035663,12.6950325 34.1018487,12.3053592 34.0548067,11.9047191 L33.4681177,6.90809437 L33.4681177,6.90809437 C33.4037124,6.35957781 33.7961622,5.86270655 34.3446788,5.79830134 C34.8028689,5.744502 35.2383984,6.01113077 35.3988582,6.44366419 L37.1505552,11.1655155 L37.1505552,11.1655155 C37.3426477,11.6833175 37.9181309,11.9473573 38.4359329,11.7552648 C38.8141015,11.614973 39.0709631,11.2612214 39.0872983,10.8581997 L39.291149,5.82878431 L39.291149,5.82878431 C39.3135157,5.27695265 39.7789954,4.84773648 40.3308271,4.87010315 C40.7917693,4.88878592 41.1801142,5.22036174 41.2708116,5.67267884 L42.2607887,10.6097917 L42.2607887,10.6097917 C42.36937,11.1512975 42.8963698,11.5022521 43.4378756,11.3936708 C43.8333425,11.3143728 44.1424567,11.0052585 44.2217547,10.6097917 L45.2117317,5.67267884 L45.2117317,5.67267884 C45.3203131,5.13117304 45.8473128,4.78021842 46.3888187,4.88879976 C46.8411358,4.97949721 47.1727116,5.36784208 47.1913943,5.82878431 L47.3952451,10.8581997 L47.3952451,10.8581997 C47.4176118,11.4100314 47.8830915,11.8392476 48.4349231,11.8168809 C48.8379448,11.8005457 49.1916964,11.5436842 49.3319882,11.1655155 L51.0836852,6.44366419 L51.0836852,6.44366419 C51.2757777,5.92586218 51.8512609,5.66182245 52.3690629,5.85391495 C52.8015963,6.01437479 53.068225,6.4499043 53.0144257,6.90809437 L52.4277366,11.9047191 L52.4277366,11.9047191 C52.3633314,12.4532357 52.7557812,12.9501069 53.3042978,13.0145122 C53.7049379,13.0615541 54.0946111,12.8632717 54.2924249,12.5117107 L56.76205,8.12261407 L56.76205,8.12261407 C57.0328769,7.64129173 57.6426144,7.47065151 58.1239368,7.74147848 C58.526026,7.96772314 58.7211405,8.43968731 58.5961896,8.88381533 L57.2345164,13.7237753 L57.2345164,13.7237753 C57.0849435,14.2554203 57.3946742,14.8076564 57.9263192,14.9572293 C58.3146959,15.0664951 58.7306903,14.9316733 58.981141,14.6153666 L62.1067391,10.6678918 L62.1067391,10.6678918 C62.4495785,10.2349027 63.0785118,10.1618219 63.5115009,10.5046613 C63.8732483,10.7910917 63.992054,11.2878453 63.7990461,11.7069533 L61.6972884,16.2708268 L61.6972884,16.2708268 C61.4662699,16.7724731 61.6856571,17.3664151 62.1873034,17.5974335 C62.5538363,17.7662295 62.9859043,17.6981849 63.2828166,17.4249056 L66.9860452,14.0164399 L66.9860452,14.0164399 C67.3924069,13.6424231 68.0250287,13.6686438 68.3990456,14.0750055 C68.7115591,14.4145451 68.7511503,14.9238395 68.4948639,15.3075961 L65.7061066,19.483408 L65.7061066,19.483408 C65.3993825,19.9426887 65.523054,20.5636583 65.9823347,20.8703824 C66.3179847,21.0945416 66.7554847,21.0949448 67.0915473,20.8714047 L71.2799063,18.0854172 L71.2799063,18.0854172 C71.7397515,17.7795401 72.3604921,17.9043559 72.6663692,18.3642011 C72.9219783,18.7484752 72.8814054,19.257764 72.5681793,19.5967212 L69.1620953,23.2826117 L69.1620953,23.2826117 C68.7872704,23.6882282 68.8122318,24.3209009 69.2178483,24.6957259 C69.514343,24.9697128 69.9465023,25.0385484 70.3134477,24.870236 L74.8828436,22.7743227 L74.8828436,22.7743227 C75.3848394,22.5440648 75.9784483,22.7643518 76.2087062,23.2663475 C76.4011452,23.6858925 76.2814322,24.1826413 75.9190038,24.4684671 L71.9799195,27.5749898 L71.9799195,27.5749898 C71.5462651,27.9169873 71.4719626,28.5457774 71.8139601,28.9794318 C72.0639994,29.2964826 72.4801792,29.4320506 72.8689858,29.3230999 L77.7065045,27.9675383 L77.7065045,27.9675383 C78.2383047,27.8185181 78.7902186,28.1288226 78.9392388,28.6606228 C79.063795,29.1051197 78.8679094,29.5771135 78.4652183,29.8027937 L74.089938,32.254832 L74.089938,32.254832 C73.6081546,32.5248379 73.436475,33.1342835 73.7064809,33.6160669 C73.9039161,33.9683594 74.2938732,34.1673184 74.6949843,34.1204089 L79.6817582,33.5372103 L79.6817582,33.5372103 C80.2303044,33.4730584 80.7269945,33.8657375 80.7911464,34.4142837 C80.8447706,34.8728096 80.5775457,35.3084504 80.1445103,35.4684561 L75.4399743,37.2067731 L75.4399743,37.2067731 C74.9219229,37.398192 74.657135,37.9733314 74.848554,38.4913827 C74.9885382,38.8702324 75.342676,39.1276826 75.7462317,39.1439742 L80.760312,39.3463933 L80.760312,39.3463933 C81.3121472,39.368671 81.7414385,39.8340814 81.7191608,40.3859167 C81.7005384,40.8472087 81.368552,41.2357954 80.9158251,41.3262132 L75.9966489,42.308662 L75.9966489,42.308662 C75.4550598,42.4168272 75.1037003,42.9435571 75.2118655,43.4851462 C75.2909691,43.8812223 75.6005728,44.190826 75.9966489,44.2699296 L80.9158251,45.2523784 L80.9158251,45.2523784 C81.4574141,45.3605436 81.8087736,45.8872735 81.7006085,46.4288626 C81.6101907,46.8815896 81.221604,47.2135759 80.760312,47.2321983 L75.7462317,47.4346175 L75.7462317,47.4346175 C75.1943964,47.4568951 74.7651052,47.9223056 74.7873829,48.4741409 C74.8036745,48.8776966 75.0611246,49.2318344 75.4399743,49.3718186 L80.1445103,51.1101355 L80.1445103,51.1101355 C80.6625617,51.3015545 80.9273496,51.8766938 80.7359306,52.3947452 C80.5759249,52.8277806 80.140284,53.0950055 79.6817582,53.0413813 L74.6949843,52.4581828 L74.6949843,52.4581828 C74.1464381,52.3940308 73.6497481,52.7867099 73.5855961,53.3352562 C73.5386865,53.7363673 73.7376456,54.1263244 74.089938,54.3237596 L78.4652183,56.7757979 L78.4652183,56.7757979 C78.9470017,57.0458038 79.1186813,57.6552494 78.8486754,58.1370328 C78.6229952,58.539724 78.1510014,58.7356095 77.7065045,58.6110533 L72.8689858,57.2554917 L72.8689858,57.2554917 C72.3371856,57.1064716 71.7852716,57.4167761 71.6362514,57.9485762 C71.5273007,58.3373828 71.6628687,58.7535626 71.9799195,59.0036019 L75.9190038,62.1101245 L75.9190038,62.1101245 C76.3526582,62.4521221 76.4269607,63.0809122 76.0849632,63.5145666 C75.7991373,63.876995 75.3023886,63.996708 74.8828436,63.804269 L70.3134477,61.7083556 L70.3134477,61.7083556 C69.811452,61.4780977 69.2178431,61.6983847 68.9875852,62.2003805 C68.8192728,62.5673259 68.8881083,62.9994852 69.1620953,63.2959799 L72.5681793,66.9818704 L72.5681793,66.9818704 C72.9430043,67.3874869 72.9180428,68.0201596 72.5124264,68.3949846 C72.1734691,68.7082106 71.6641803,68.7487836 71.2799063,68.4931745 L67.0915473,65.707187 L67.0915473,65.707187 C66.6317021,65.4013099 66.0109615,65.5261257 65.7050844,65.985971 C65.4815443,66.3220336 65.4819475,66.7595336 65.7061066,67.0951836 L68.4948639,71.2709955 L68.4948639,71.2709955 C68.801588,71.7302762 68.6779165,72.3512458 68.2186358,72.65797 C67.8348793,72.9142564 67.3255848,72.8746652 66.9860452,72.5621517 L63.2828166,69.153686 L63.2828166,69.153686 C62.8764549,68.7796691 62.2438331,68.8058898 61.8698162,69.2122515 C61.596537,69.5091639 61.5284924,69.9412318 61.6972884,70.3077648 L63.7990461,74.8716383 L63.7990461,74.8716383 C64.0300645,75.3732845 63.8106773,75.9672266 63.3090311,76.198245 C62.8899231,76.3912529 62.3931695,76.2724472 62.1067391,75.9106998 L58.981141,71.963225 L58.981141,71.963225 C58.6383015,71.5302359 58.0093682,71.4571551 57.5763791,71.7999946 C57.2600724,72.0504452 57.1252506,72.4664397 57.2345164,72.8548164 L58.5961896,77.6947763 L58.5961896,77.6947763 C58.7457625,78.2264213 58.4360318,78.7786575 57.9043868,78.9282304 C57.4602588,79.0531812 56.9882946,78.8580668 56.76205,78.4559776 L54.2924249,74.066881 L54.2924249,74.066881 C54.0215979,73.5855586 53.4118605,73.4149184 52.9305381,73.6857454 C52.5789771,73.8835592 52.3806946,74.2732324 52.4277366,74.6738725 L53.0144257,79.6704973 L53.0144257,79.6704973 C53.0788309,80.2190138 52.6863811,80.7158851 52.1378646,80.7802903 C51.6796745,80.8340896 51.244145,80.5674609 51.0836852,80.1349274 L49.3319882,75.4130761 L49.3319882,75.4130761 C49.1398957,74.8952741 48.5644125,74.6312344 48.0466105,74.8233269 C47.6684418,74.9636186 47.4115802,75.3173702 47.3952451,75.7203919 L47.1913943,80.7498073 L47.1913943,80.7498073 C47.1690277,81.301639 46.703548,81.7308552 46.1517163,81.7084885 C45.6907741,81.6898057 45.3024292,81.3582299 45.2117317,80.9059128 L44.2217547,75.9688 L44.2217547,75.9688 C44.1131733,75.4272942 43.5861736,75.0763395 43.0446678,75.1849209 C42.6492009,75.2642189 42.3400867,75.5733331 42.2607887,75.9688 Z" id="Star" fill="#633EA5"></path>
                            <g id="Oval">
                                <use fill="#633EA5" fill-rule="evenodd" xlink:href="#path-4"></use>
                                <ellipse stroke="#00B898" stroke-width="2.69999993" cx="43.2702946" cy="43.131464" rx="25.9202946" ry="25.781464"></ellipse>
                            </g>
                            <ellipse id="Oval" fill="#FDD442" cx="43.3400002" cy="43.2262692" rx="22.3400002" ry="22.2262692"></ellipse>
                            <g id="HinduSwastika" transform="translate(32.000000, 32.000000)" fill="#EB3B8C">
                                <path d="M1.53173915,2.74497053e-05 C1.76151066,-0.00145472761 2.00568784,0.057000065 2.19676264,0.196511663 C2.74462942,0.618245582 3.52207816,1.46776393 3.71917179,4.13993593 C3.66410257,6.26892784 3.49657024,7.81045566 3.42513242,9.64561577 C3.41715747,10.0288465 3.38872825,10.296904 3.82771892,10.3257535 C5.6306071,10.390658 7.86931035,10.3160281 9.87063879,10.0880488 L9.87063879,10.0385842 L9.86651679,10.0358363 C9.54086856,7.95604736 9.47958088,3.81682865 9.58896573,3.33476294 C9.83309462,1.52623102 11.1939639,0.978726111 12.6818743,0.928861892 C14.2702802,0.983902525 16.6456755,1.16141345 18.6354837,1.08412563 C19.0974484,1.05020745 19.4308457,0.903888665 19.6385151,0.669172973 C19.8567989,0.422460918 19.9901696,0.262810437 20.2279665,0.171779381 C20.624168,-0.0824864649 21.3376675,0.0147177633 21.8520532,0.813444588 C22.0093042,1.10826389 22.0572713,1.57193938 21.7984662,1.92639703 C21.3767326,2.47426381 20.9751425,3.38499167 18.3029714,3.58208576 C16.3595575,3.60434076 14.6022239,3.52986209 12.7670634,3.45842427 C12.3775948,3.46916187 12.0388137,3.40008258 12.023721,3.79780608 C11.9590033,5.59550152 12.099138,7.83398851 12.3273785,9.83110785 C14.513648,9.56573695 18.005511,9.52023351 18.4458697,9.62363153 C20.2544007,9.84532688 20.7078018,11.084352 20.7267343,12.8250876 C20.6716941,14.4687727 20.5573895,15.6905009 20.6346752,17.7495592 C20.6685938,18.2276014 20.923139,19.7467976 21.1114598,20.0235541 C21.2996378,20.3001011 21.5480491,20.5744077 21.6390805,20.8204841 C21.8933462,21.2304731 21.7659137,21.7817521 20.9671876,22.314038 C20.6723679,22.4767615 20.1922051,22.542003 19.8377468,22.2741919 C19.2898802,21.8377796 18.4736374,20.8974686 18.230149,18.7044993 C18.0259416,16.7541009 18.1402525,14.8282802 18.2603774,12.9130246 C18.2496389,12.5100018 18.3022308,12.0836231 17.9045064,12.0680051 C16.2919749,12.007933 14.3737772,12.1296199 12.555465,12.32632 C12.8417334,14.4587936 12.8507288,17.9079451 12.7437051,18.3637433 C12.5220097,20.1722758 11.3310753,20.949941 9.59033968,20.9688766 C7.94665444,20.9138364 6.78675646,20.7995318 4.7276991,20.8768175 C4.11170875,20.7796134 2.71873555,21.3495563 2.499046,21.6627543 C2.30695913,21.9366014 1.94956651,22.2078916 1.70349111,22.2989246 C1.21878592,22.5905476 0.452025118,22.3077333 0.0849008991,21.4264244 C-0.0778225407,21.1316048 -0.0194596411,20.6820212 0.372070129,20.3120971 C0.901270528,19.7796963 2.04388327,18.8085685 4.19045907,18.4722913 C6.14085706,18.2680839 7.58714702,18.3823948 9.50240269,18.5025197 C9.90542543,18.4917812 10.2850876,18.4674289 10.3007056,18.0697045 C10.3636365,16.3804337 10.2925869,14.4089597 10.0891073,12.5228041 C8.00880655,12.8402158 3.8262276,12.8787678 3.39490403,12.8003553 C1.04510333,12.4015781 1.00176931,10.9704156 0.951904639,9.73767491 C0.960550603,8.1415368 1.26827114,5.75876001 1.19098332,3.76895178 C1.16936226,3.3546133 1.07354568,2.79208534 0.916180234,2.47188121 C0.768089961,2.17055061 0.554223246,1.99000506 0.410542553,1.8123538 C0.156277016,1.41615239 0.215008941,0.632577997 1.01373534,0.118192773 C1.14962876,0.0457098353 1.3352677,0.00129506145 1.53173915,2.74497053e-05 Z M7.84871997,6.47468739 C7.84871997,7.11526268 7.32943109,7.63455156 6.68885579,7.63455156 C6.0482805,7.63455156 5.52899162,7.11526268 5.52899162,6.47468739 C5.52899162,6.06030783 5.75006048,5.67740533 6.10892371,5.47021555 C6.46778693,5.26302577 6.90992465,5.26302577 7.26878788,5.47021555 C7.6276511,5.67740533 7.84871997,6.06030783 7.84871997,6.47468739 L7.84871997,6.47468739 Z M7.84874469,15.506166 C7.84874469,16.1467413 7.32945581,16.6660302 6.68888051,16.6660302 C6.04830522,16.6660302 5.52901634,16.1467413 5.52901634,15.506166 C5.52901634,15.0917865 5.7500852,14.708884 6.10894843,14.5016942 C6.46781165,14.2945044 6.90994938,14.2945044 7.2688126,14.5016942 C7.62767582,14.708884 7.84874469,15.0917865 7.84874469,15.506166 L7.84874469,15.506166 Z M16.5709052,6.47475074 C16.5709052,7.11532603 16.0516163,7.63461491 15.411041,7.63461491 C14.7704657,7.63461491 14.2511768,7.11532603 14.2511768,6.47475074 C14.2511768,6.06037118 14.4722457,5.67746868 14.8311089,5.4702789 C15.1899721,5.26308912 15.6321099,5.26308912 15.9909731,5.4702789 C16.3498363,5.67746868 16.5709052,6.06037118 16.5709052,6.47475074 L16.5709052,6.47475074 Z M16.5709052,15.506166 C16.5709052,16.1467413 16.0516163,16.6660302 15.411041,16.6660302 C14.7704657,16.6660302 14.2511768,16.1467413 14.2511768,15.506166 C14.2511768,15.0917865 14.4722457,14.708884 14.8311089,14.5016942 C15.1899721,14.2945044 15.6321099,14.2945044 15.9909731,14.5016942 C16.3498363,14.708884 16.5709052,15.0917865 16.5709052,15.506166 L16.5709052,15.506166 Z" id="Combined-Shape"></path>
                            </g>
                        </g>
                    </g>
                </g>
            </g>
        </g>
    </g>
</svg>