<?xml version="1.0" encoding="UTF-8"?>
<svg width="142px" height="142px" viewBox="0 0 142 142" version="1.1" xmlns="http://www.w3.org/2000/svg" xmlns:xlink="http://www.w3.org/1999/xlink">
    <!-- Generator: Sketch 46 (44423) - http://www.bohemiancoding.com/sketch -->
    <title>5</title>
    <desc>Created with Sketch.</desc>
    <defs>
        <rect id="path-1" x="0" y="0" width="142" height="142" rx="6"></rect>
        <polygon id="path-3" points="83.4555992 66.8115091 81.9252531 100.253084 83.0286651 66.7947682 78.873996 100.013424 82.6043631 66.744649 75.850986 99.5355812 82.1853093 66.6614603 72.8748609 98.8225022 81.7740872 66.545715 69.9639696 97.8785831 81.3732322 66.3981268 67.1362587 96.7096435 80.9852157 66.2196056 64.409162 95.3228903 80.61243 66.0112521 61.7994928 93.7268734 80.2571733 65.7743507 59.3233408 91.9314326 79.921636 65.5103621 56.9959722 89.9476375 79.6078867 65.2209138 54.8317359 87.7877188 79.3178599 64.9077905 52.8439754 85.4649931 79.0533436 64.5729226 51.0449456 82.9937809 78.8159686 64.2183746 49.4457383 80.3893179 78.6071986 63.8463325 48.0562131 77.6676616 78.4283205 63.4590901 46.8849369 74.8455918 78.2804373 63.0590348 45.939131 71.9405076 78.1644607 62.6486331 45.2246266 68.9703198 78.0811057 62.2304153 44.7458288 65.9533405 78.0308863 61.8069597 44.5056897 62.9081704 78.014112 61.3808773 44.5056897 59.8535841 78.0308863 60.9547948 44.7458288 56.8084141 78.0811057 60.5313393 45.2246266 53.7914348 78.1644607 60.1131215 45.939131 50.821247 78.2804373 59.7027198 46.8849369 47.9161628 78.4283205 59.3026645 48.0562131 45.094093 78.6071986 58.9154221 49.4457383 42.3724367 78.8159686 58.54338 51.0449456 39.7679737 79.0533436 58.188832 52.8439754 37.2967614 79.3178599 57.8539641 54.8317359 34.9740358 79.6078867 57.5408407 56.9959722 32.8141171 79.921636 57.2513925 59.3233408 30.830322 80.2571733 56.9874039 61.7994928 29.0348812 80.61243 56.7505025 64.409162 27.4388642 80.9852157 56.542149 67.1362587 26.0521111 81.3732322 56.3636278 69.9639696 24.8831715 81.7740872 56.2160396 72.8748609 23.9392524 82.1853093 56.1002943 75.850986 23.2261734 82.6043631 56.0171056 78.873996 22.7483308 83.0286651 55.9669863 81.9252531 22.5086708 83.4555992 55.9502455 84.9859453 22.5086708 83.8825334 55.9669863 88.0372025 22.7483308 84.3068354 56.0171056 91.0602125 23.2261734 84.7258892 56.1002943 94.0363376 23.9392524 85.1371113 56.2160396 96.9472289 24.8831715 85.5379663 56.3636278 99.7749398 26.0521111 85.9259827 56.542149 102.502037 27.4388642 86.2987685 56.7505025 105.111706 29.0348812 86.6540252 56.9874039 107.587858 30.830322 86.9895625 57.2513925 109.915226 32.8141171 87.3033118 57.5408407 112.079463 34.9740358 87.5933386 57.8539641 114.067223 37.2967614 87.8578549 58.188832 115.866253 39.7679737 88.0952298 58.54338 117.46546 42.3724367 88.3039999 58.9154221 118.854985 45.094093 88.4828779 59.3026645 120.026262 47.9161628 88.6307611 59.7027198 120.972067 50.821247 88.7467378 60.1131215 121.686572 53.7914348 88.8300927 60.5313393 122.16537 56.8084141 88.8803122 60.9547948 122.405509 59.8535841 88.8970865 61.3808773 122.405509 62.9081704 88.8803122 61.8069597 122.16537 65.9533405 88.8300927 62.2304153 121.686572 68.9703198 88.7467378 62.6486331 120.972067 71.9405076 88.6307611 63.0590348 120.026262 74.8455918 88.4828779 63.4590901 118.854985 77.6676616 88.3039999 63.8463325 117.46546 80.3893179 88.0952298 64.2183746 115.866253 82.9937809 87.8578549 64.5729226 114.067223 85.4649931 87.5933386 64.9077905 112.079463 87.7877188 87.3033118 65.2209138 109.915226 89.9476375 86.9895625 65.5103621 107.587858 91.9314326 86.6540252 65.7743507 105.111706 93.7268734 86.2987685 66.0112521 102.502037 95.3228903 85.9259827 66.2196056 99.7749398 96.7096435 85.5379663 66.3981268 96.9472289 97.8785831 85.1371113 66.545715 94.0363376 98.8225022 84.7258892 66.6614603 91.0602125 99.5355812 84.3068354 66.744649 88.0372025 100.013424 83.8825334 66.7947682 84.9859453 100.253084"></polygon>
        <ellipse id="path-4" cx="35.2410282" cy="35.0208921" rx="28.5206782" ry="28.375482"></ellipse>
    </defs>
    <g id="Page-1" stroke="none" stroke-width="1" fill="none" fill-rule="evenodd">
        <g id="cards-copy" transform="translate(-32.000000, -384.000000)">
            <g id="5" transform="translate(32.000000, 384.000000)">
                <mask id="mask-2" fill="white">
                    <use xlink:href="#path-1"></use>
                </mask>
                <use id="Mask" fill="#754AC2" xlink:href="#path-1"></use>
                <g id="Group-8" mask="url(#mask-2)">
                    <g transform="translate(-9.194245, 11.237410)">
                        <path d="M157.323741,1.27897692e-13 C134.01652,32.9521727 109.789277,53.0896115 84.6420127,60.4123165 C59.4947481,67.7350216 31.2807438,85.7366715 -1.42108547e-14,114.417266" id="Path-2" stroke="#EB3B8C" stroke-width="7" stroke-linecap="round" stroke-linejoin="round" stroke-dasharray="6,6,6"></path>
                        <path d="M157.323741,1.27897692e-13 C134.01652,32.9521727 109.789277,53.0896115 84.6420127,60.4123165 C59.4947481,67.7350216 31.2807438,85.7366715 -1.42108547e-14,114.417266" id="Path-2" stroke="#FFBC00" stroke-width="7" stroke-linecap="round" stroke-linejoin="round" stroke-dasharray="6,12,6,12"></path>
                        <g id="Path" stroke="none" stroke-linecap="round" stroke-linejoin="round">
                            <use stroke="#FF6854" stroke-width="1" xlink:href="#path-3"></use>
                            <use stroke="#EB3B8C" stroke-width="2" xlink:href="#path-3"></use>
                        </g>
                        <g id="Group-7" stroke="none" stroke-width="1" fill-rule="evenodd" transform="translate(48.480963, 26.306763)">
                            <ellipse id="Oval" fill="#54348C" cx="35.2410282" cy="35.0208921" rx="34.6075883" ry="34.4314042"></ellipse>
                            <g id="Oval">
                                <use fill="#FFBC00" fill-rule="evenodd" xlink:href="#path-4"></use>
                                <ellipse stroke="#00B898" stroke-width="2.69999993" cx="35.2410282" cy="35.0208921" rx="27.1706782" ry="27.0254821"></ellipse>
                            </g>
                            <ellipse id="Oval" fill="#FA5857" cx="35.2410282" cy="35.0208921" rx="21.4266158" ry="21.3175348"></ellipse>
                            <polygon id="Star" fill="#54348C" points="35.3030803 48.8899534 31.8948084 51.3628494 29.7890252 47.720243 25.6675859 48.5958424 25.2284002 44.4133652 21.1064279 43.5402689 22.409779 39.5411094 19 37.0702837 21.8205267 33.9459328 19.7125228 30.3046059 23.5625304 28.5952922 23.1207947 24.4130826 27.3345819 24.4143621 28.6354944 20.4144118 32.4844591 22.1260632 35.3030803 19 38.1217015 22.1260632 41.9706662 20.4144118 43.2715787 24.4143621 47.4853659 24.4130826 47.0436301 28.5952922 50.8936378 30.3046059 48.7856339 33.9459328 51.6061606 37.0702837 48.1963816 39.5411094 49.4997327 43.5402689 45.3777604 44.4133652 44.9385747 48.5958424 40.8171354 47.720243 38.7113522 51.3628494"></polygon>
                            <polygon id="Star" fill="#FDD442" points="35.3030803 46.5166003 32.4848814 48.5613647 30.7436717 45.5494015 27.3357759 46.2734086 26.9726263 42.8150424 23.5642896 42.093105 24.641992 38.7863186 21.8225469 36.7432662 24.1547568 34.1598331 22.4117109 31.1489279 25.595168 29.7355472 25.2299098 26.2774021 28.7141654 26.2784601 29.7898514 22.9710199 32.9724461 24.3863337 35.3030803 21.8014847 37.6337145 24.3863337 40.8163092 22.9710199 41.8919952 26.2784601 45.3762508 26.2774021 45.0109926 29.7355472 48.1944497 31.1489279 46.4514038 34.1598331 48.7836137 36.7432662 45.9641686 38.7863186 47.041871 42.093105 43.6335343 42.8150424 43.2703847 46.2734086 39.8624889 45.5494015 38.1212792 48.5613647"></polygon>
                            <ellipse id="Oval" fill="#EB3B8C" cx="35.2410282" cy="35.0208921" rx="7.5981526" ry="7.55947109"></ellipse>
                        </g>
                    </g>
                </g>
            </g>
        </g>
    </g>
</svg>