<?xml version="1.0" encoding="UTF-8"?>
<svg width="142px" height="142px" viewBox="0 0 142 142" version="1.1" xmlns="http://www.w3.org/2000/svg" xmlns:xlink="http://www.w3.org/1999/xlink">
    <!-- Generator: Sketch 46 (44423) - http://www.bohemiancoding.com/sketch -->
    <title>6</title>
    <desc>Created with Sketch.</desc>
    <defs>
        <rect id="path-1" x="0" y="0" width="142" height="142" rx="6"></rect>
        <path d="M157.323741,0 C134.01652,32.9521727 109.789277,53.0896115 84.6420127,60.4123165 C59.4947481,67.7350216 31.2807438,85.7366715 -1.42108547e-14,114.417266" id="path-3"></path>
        <ellipse id="path-4" cx="43.2410282" cy="43.0208921" rx="28.5206782" ry="28.375482"></ellipse>
    </defs>
    <g id="Page-1" stroke="none" stroke-width="1" fill="none" fill-rule="evenodd">
        <g id="cards-copy" transform="translate(-186.000000, -384.000000)">
            <g id="6" transform="translate(186.000000, 384.000000)">
                <mask id="mask-2" fill="white">
                    <use xlink:href="#path-1"></use>
                </mask>
                <use id="Mask" fill="#58BD64" xlink:href="#path-1"></use>
                <g id="Group-8" mask="url(#mask-2)">
                    <g transform="translate(-10.215827, 7.151079)">
                        <g id="Path-2" stroke-linecap="round" stroke-linejoin="round">
                            <use stroke="#FFDA00" stroke-width="8.09999979" xlink:href="#path-3"></use>
                            <use stroke="#FDD442" stroke-width="1.79999995" xlink:href="#path-3"></use>
                        </g>
                        <g id="Group-7" stroke-width="1" fill-rule="evenodd" transform="translate(40.480963, 18.306763)">
                            <polygon id="Star" fill="#633EA5" points="43.2412717 81.2852938 40.3506137 89.1433291 38.4695911 80.985684 34.6148852 88.4201836 33.7731629 80.0915796 29.0152 86.985297 29.2260523 78.6170813 23.6398684 84.8612984 24.8999701 76.5854427 18.5736626 82.0816845 20.8631412 74.0287039 13.8964798 78.6902915 17.1792288 70.9871863 9.68208189 74.7406036 13.9063304 67.5088564 5.99693243 70.2949097 11.0960615 63.6485696 2.89914846 65.4233213 8.79274183 59.4672049 0.437583864 60.202666 7.03269602 55.0307049 -1.348941 54.7152767 5.84368107 50.4090359 -2.43225158 49.047693 5.24444847 45.6750843 -2.79526341 43.2892958 5.24444847 40.9035074 -2.43225158 37.5308987 5.84368107 36.1695558 -1.348941 31.8633149 7.03269602 31.5478867 0.437583864 26.3759257 8.79274183 27.1113867 2.89914846 21.1552704 11.0960615 22.930022 5.99693243 16.2836819 13.9063304 19.0697352 9.68208189 11.8379881 17.1792288 15.5914053 13.8964798 7.88830016 20.8631412 12.5498877 18.5736626 4.49690711 24.8999701 9.99314897 23.6398684 1.71729319 29.2260523 7.96151034 29.0152 -0.406705406 33.7731629 6.48701198 34.6148852 -1.84159196 38.4695911 5.59290763 40.3506137 -2.56473746 43.2412717 5.29329784 46.1319296 -2.56473746 48.0129522 5.59290763 51.8676581 -1.84159196 52.7093805 6.48701198 57.4673434 -0.406705406 57.2564911 7.96151034 62.842675 1.71729319 61.5825732 9.99314897 67.9088807 4.49690711 65.6194021 12.5498877 72.5860635 7.88830016 69.3033145 15.5914053 76.8004615 11.8379881 72.576213 19.0697352 80.4856109 16.2836819 75.3864818 22.930022 83.5833949 21.1552704 77.6898015 27.1113867 86.0449595 26.3759257 79.4498473 31.5478867 87.8314844 31.8633149 80.6388623 36.1695558 88.9147949 37.5308987 81.2380949 40.9035074 89.2778068 43.2892958 81.2380949 45.6750843 88.9147949 49.047693 80.6388623 50.4090359 87.8314844 54.7152767 79.4498473 55.0307049 86.0449595 60.202666 77.6898015 59.4672049 83.5833949 65.4233213 75.3864818 63.6485696 80.4856109 70.2949097 72.576213 67.5088564 76.8004615 74.7406036 69.3033145 70.9871863 72.5860635 78.6902915 65.6194021 74.0287039 67.9088807 82.0816845 61.5825732 76.5854427 62.842675 84.8612984 57.2564911 78.6170813 57.4673434 86.985297 52.7093805 80.0915796 51.8676581 88.4201836 48.0129522 80.985684 46.1319296 89.1433291"></polygon>
                            <ellipse id="Oval" fill="#FDD442" cx="43.2410282" cy="43.0208921" rx="34.6075883" ry="34.4314042"></ellipse>
                            <g id="Oval">
                                <use fill="#633EA5" fill-rule="evenodd" xlink:href="#path-4"></use>
                                <ellipse stroke="#00B898" stroke-width="2.69999993" cx="43.2410282" cy="43.0208921" rx="27.1706782" ry="27.0254821"></ellipse>
                            </g>
                            <ellipse id="Oval" fill="#EB3B8C" cx="43.2410282" cy="43.0208921" rx="13.3647211" ry="13.2966825"></ellipse>
                            <ellipse id="Oval" fill="#FDD442" cx="43.2410282" cy="43.0208921" rx="9.64383975" ry="9.59474384"></ellipse>
                            <g id="Group" transform="translate(39.841727, 20.431655)" fill="#EB3B8C">
                                <circle id="Oval-2" cx="3.0647482" cy="3.0647482" r="3.0647482"></circle>
                                <circle id="Oval-2-Copy" cx="3.0647482" cy="41.8848921" r="3.0647482"></circle>
                            </g>
                            <g id="Group" transform="translate(42.906475, 42.906475) rotate(-330.000000) translate(-42.906475, -42.906475) translate(39.841727, 20.431655)" fill="#00B898">
                                <circle id="Oval-2" cx="3.0647482" cy="3.0647482" r="3.0647482"></circle>
                                <circle id="Oval-2-Copy" cx="3.0647482" cy="41.8848921" r="3.0647482"></circle>
                            </g>
                            <g id="Group" transform="translate(42.906475, 42.906475) rotate(-300.000000) translate(-42.906475, -42.906475) translate(39.841727, 20.431655)" fill="#EB3B8C">
                                <circle id="Oval-2" cx="3.0647482" cy="3.0647482" r="3.0647482"></circle>
                                <circle id="Oval-2-Copy" cx="3.0647482" cy="41.8848921" r="3.0647482"></circle>
                            </g>
                            <g id="Group" transform="translate(42.906475, 42.906475) rotate(-270.000000) translate(-42.906475, -42.906475) translate(39.841727, 20.431655)" fill="#00B898">
                                <circle id="Oval-2" cx="3.0647482" cy="3.0647482" r="3.0647482"></circle>
                                <circle id="Oval-2-Copy" cx="3.0647482" cy="41.8848921" r="3.0647482"></circle>
                            </g>
                            <g id="Group" transform="translate(42.906475, 42.906475) rotate(-240.000000) translate(-42.906475, -42.906475) translate(39.841727, 20.431655)" fill="#EB3B8C">
                                <circle id="Oval-2" cx="3.0647482" cy="3.0647482" r="3.0647482"></circle>
                                <circle id="Oval-2-Copy" cx="3.0647482" cy="41.8848921" r="3.0647482"></circle>
                            </g>
                            <g id="Group" transform="translate(42.906475, 42.906475) rotate(-210.000000) translate(-42.906475, -42.906475) translate(39.841727, 20.431655)" fill="#00B898">
                                <circle id="Oval-2" cx="3.0647482" cy="3.0647482" r="3.0647482"></circle>
                                <circle id="Oval-2-Copy" cx="3.0647482" cy="41.8848921" r="3.0647482"></circle>
                            </g>
                        </g>
                    </g>
                </g>
            </g>
        </g>
    </g>
</svg>