<?xml version="1.0" encoding="UTF-8"?>
<svg width="142px" height="142px" viewBox="0 0 142 142" version="1.1" xmlns="http://www.w3.org/2000/svg" xmlns:xlink="http://www.w3.org/1999/xlink">
    <!-- Generator: Sketch 46 (44423) - http://www.bohemiancoding.com/sketch -->
    <title>7</title>
    <desc>Created with Sketch.</desc>
    <defs>
        <rect id="path-1" x="0" y="0" width="142" height="142" rx="6"></rect>
        <path d="M157.323741,0 C134.01652,32.9521727 109.789277,53.0896115 84.6420127,60.4123165 C59.4947481,67.7350216 31.2807438,85.7366715 -1.42108547e-14,114.417266" id="path-3"></path>
        <path d="M22.8428181,56.9514318 L22.8428181,56.9514318 L22.8428181,56.9514318 C19.3447951,58.3397434 15.3767837,56.6961392 13.8849925,53.2409789 L13.8849925,53.2409789 L13.8849925,53.2409789 C12.1648564,49.2569456 8.98814815,46.0802374 5.00411485,44.3601013 L5.00411485,44.3601013 L5.00411485,44.3601013 C1.54895453,42.8683101 -0.0946496135,38.9002987 1.29366199,35.4022757 L1.29366199,35.4022757 L1.29366199,35.4022757 C2.89447907,31.3688188 2.89447907,26.8762749 1.29366199,22.8428181 L1.29366199,22.8428181 L1.29366199,22.8428181 C-0.0946496135,19.3447951 1.54895453,15.3767837 5.00411485,13.8849925 L5.00411485,13.8849925 L5.00411485,13.8849925 C8.98814815,12.1648564 12.1648564,8.98814815 13.8849925,5.00411485 L13.8849925,5.00411485 L13.8849925,5.00411485 C15.3767837,1.54895453 19.3447951,-0.0946496135 22.8428181,1.29366199 L22.8428181,1.29366199 L22.8428181,1.29366199 C26.8762749,2.89447907 31.3688188,2.89447907 35.4022757,1.29366199 L35.4022757,1.29366199 L35.4022757,1.29366199 C38.9002987,-0.0946496135 42.8683101,1.54895453 44.3601013,5.00411485 L44.3601013,5.00411485 L44.3601013,5.00411485 C46.0802374,8.98814815 49.2569456,12.1648564 53.2409789,13.8849925 L53.2409789,13.8849925 L53.2409789,13.8849925 C56.6961392,15.3767837 58.3397434,19.3447951 56.9514318,22.8428181 L56.9514318,22.8428181 L56.9514318,22.8428181 C55.3506147,26.8762749 55.3506147,31.3688188 56.9514318,35.4022757 L56.9514318,35.4022757 L56.9514318,35.4022757 C58.3397434,38.9002987 56.6961392,42.8683101 53.2409789,44.3601013 L53.2409789,44.3601013 L53.2409789,44.3601013 C49.2569456,46.0802374 46.0802374,49.2569456 44.3601013,53.2409789 L44.3601013,53.2409789 L44.3601013,53.2409789 C42.8683101,56.6961392 38.9002987,58.3397434 35.4022757,56.9514318 L35.4022757,56.9514318 L35.4022757,56.9514318 C31.3688188,55.3506147 26.8762749,55.3506147 22.8428181,56.9514318 Z" id="path-4"></path>
        <mask id="mask-5" maskContentUnits="userSpaceOnUse" maskUnits="objectBoundingBox" x="0" y="0" width="56.6428548" height="56.6428548" fill="white">
            <use xlink:href="#path-4"></use>
        </mask>
        <ellipse id="path-6" cx="29.2410282" cy="29.0208921" rx="11.8343603" ry="11.7741127"></ellipse>
    </defs>
    <g id="Page-1" stroke="none" stroke-width="1" fill="none" fill-rule="evenodd">
        <g id="cards-copy" transform="translate(-32.000000, -538.000000)">
            <g id="7" transform="translate(32.000000, 538.000000)">
                <mask id="mask-2" fill="white">
                    <use xlink:href="#path-1"></use>
                </mask>
                <use id="Mask" fill="#FF5787" xlink:href="#path-1"></use>
                <g id="Group-8" mask="url(#mask-2)">
                    <g transform="translate(-9.194245, 11.237410)">
                        <g id="Path-2" stroke-linecap="round" stroke-linejoin="round" stroke-dasharray="4,4,4,4">
                            <use stroke="#FFBC00" stroke-width="8.09999979" xlink:href="#path-3"></use>
                            <use stroke="#FF5787" stroke-width="1.79999995" xlink:href="#path-3"></use>
                        </g>
                        <g id="Group-7" stroke-width="1" fill-rule="evenodd" transform="translate(54.480963, 32.306763)">
                            <g id="Star-2" stroke-linecap="round" stroke-linejoin="round" stroke-dasharray="1,10,1,10">
                                <use stroke="#FFBC00" mask="url(#mask-5)" stroke-width="6" fill="#774AC6" fill-rule="evenodd" xlink:href="#path-4"></use>
                                <use stroke="#774AC6" stroke-width="3" xlink:href="#path-4"></use>
                            </g>
                            <ellipse id="Oval" fill="#FFDA00" cx="29.2410282" cy="29.0208921" rx="20.2013286" ry="20.0984854"></ellipse>
                            <ellipse id="Oval" fill="#774AC6" cx="29.2410282" cy="29.0208921" rx="17.722853" ry="17.6326276"></ellipse>
                            <g id="Oval">
                                <use fill="#00EAC1" fill-rule="evenodd" xlink:href="#path-6"></use>
                                <ellipse stroke="#FFDA00" stroke-width="2" cx="29.2410282" cy="29.0208921" rx="10.8343603" ry="10.7741127"></ellipse>
                            </g>
                        </g>
                    </g>
                </g>
            </g>
        </g>
    </g>
</svg>