<?xml version="1.0" encoding="UTF-8"?>
<svg width="142px" height="142px" viewBox="0 0 142 142" version="1.1" xmlns="http://www.w3.org/2000/svg" xmlns:xlink="http://www.w3.org/1999/xlink">
    <!-- Generator: Sketch 46 (44423) - http://www.bohemiancoding.com/sketch -->
    <title>9</title>
    <desc>Created with Sketch.</desc>
    <defs>
        <rect id="path-1" x="0" y="0" width="142" height="142" rx="6"></rect>
    </defs>
    <g id="Page-1" stroke="none" stroke-width="1" fill="none" fill-rule="evenodd">
        <g id="cards-copy" transform="translate(-32.000000, -692.000000)">
            <g id="9" transform="translate(32.000000, 692.000000)">
                <mask id="mask-2" fill="white">
                    <use xlink:href="#path-1"></use>
                </mask>
                <use id="Mask" fill="#9EE94E" xlink:href="#path-1"></use>
                <g id="Group-8" mask="url(#mask-2)">
                    <g transform="translate(-9.194245, 11.237410)">
                        <path d="M157.323741,0 C134.01652,32.9521727 109.789277,53.0896115 84.6420127,60.4123165 C59.4947481,67.7350216 31.2807438,85.7366715 -1.42108547e-14,114.417266" id="Path-2" stroke="#633EA5" stroke-width="3" stroke-linecap="round" stroke-linejoin="round" stroke-dasharray="3,3,3,3"></path>
                        <g id="Group-7" stroke="none" stroke-width="1" fill-rule="evenodd" transform="translate(50.480963, 41.306763)">
                            <ellipse id="Oval-Copy-3" fill="#804FD7" cx="6.7986411" cy="30.7640298" rx="6.7986411" ry="6.76402984"></ellipse>
                            <ellipse id="Oval-Copy-4" fill="#804FD7" cx="59.7986411" cy="6.76402984" rx="6.7986411" ry="6.76402984"></ellipse>
                            <ellipse id="Oval-Copy" fill="#EB3B8C" cx="49.1262659" cy="12.0848959" rx="8.12626594" ry="8.08489586"></ellipse>
                            <ellipse id="Oval-Copy-2" fill="#EB3B8C" cx="17.1262659" cy="26.0848959" rx="8.12626594" ry="8.08489586"></ellipse>
                            <g id="Group-2" transform="translate(18.000000, 5.000000)">
                                <polygon id="Path" stroke="#633EA5" stroke-width="1.10000002" stroke-linejoin="bevel" points="15.4970327 17.903063 14.7572813 30.830623 15.2907473 17.892949 13.2849026 30.6858956 15.0864485 17.8627046 11.8338279 30.3978347 14.8861038 17.812621 10.4180319 29.9692145 14.6916427 17.7431805 9.05114943 29.4041627 14.504938 17.6550519 7.74634435 28.7081212 14.3277877 17.549084 6.51618264 27.8877933 14.1618979 17.4262971 5.37251143 26.951079 14.0088661 17.2878739 4.32634489 25.9069995 13.8701662 17.1351474 3.38775818 24.7656098 13.7471339 16.9695885 2.56579041 23.5379022 13.6409541 16.7927916 1.86835756 22.2357002 13.5526493 16.6064593 1.30217631 20.8715446 13.48307 16.4123862 0.872699287 19.458573 13.4328863 16.2124412 0.584062588 18.0103931 13.4025814 16.00855 0.439045944 16.5409518 13.3924473 15.8026761 0.439045944 15.0644004 13.4025814 15.5968022 0.584062588 13.594959 13.4328863 15.3929109 0.872699287 12.1467791 13.48307 15.1929659 1.30217631 10.7338076 13.5526493 14.9988928 1.86835756 9.36965198 13.6409541 14.8125605 2.56579041 8.06744992 13.7471339 14.6357636 3.38775818 6.83974232 13.8701662 14.4702047 4.32634489 5.69835267 14.0088661 14.3174783 5.37251143 4.65427318 14.1618979 14.179055 6.51618264 3.7175589 14.3277877 14.0562682 7.74634435 2.89723091 14.504938 13.9503002 9.05114943 2.20118941 14.6916427 13.8621716 10.4180319 1.63613766 14.8861038 13.7927311 11.8338279 1.20751742 15.0864485 13.7426475 13.2849026 0.919456531 15.2907473 13.7124031 14.7572813 0.774729188 15.4970327 13.7022892 16.2367842 0.774729188 15.7033182 13.7124031 17.7091629 0.919456531 15.907617 13.7426475 19.1602375 1.20751742 16.1079616 13.7927311 20.5760336 1.63613766 16.3024227 13.8621716 21.942916 2.20118941 16.4891274 13.9503002 23.2477211 2.89723091 16.6662777 14.0562682 24.4778828 3.7175589 16.8321676 14.179055 25.621554 4.65427318 16.9851994 14.3174783 26.6677205 5.69835267 17.1238993 14.4702047 27.6063073 6.83974232 17.2469316 14.6357636 28.428275 8.06744992 17.3531114 14.8125605 29.1257079 9.36965198 17.4414161 14.9988928 29.6918891 10.7338076 17.5109954 15.1929659 30.1213662 12.1467791 17.5611791 15.3929109 30.4100029 13.594959 17.591484 15.5968022 30.5550195 15.0644004 17.6016182 15.8026761 30.5550195 16.5409518 17.591484 16.00855 30.4100029 18.0103931 17.5611791 16.2124412 30.1213662 19.458573 17.5109954 16.4123862 29.6918891 20.8715446 17.4414161 16.6064593 29.1257079 22.2357002 17.3531114 16.7927916 28.428275 23.5379022 17.2469316 16.9695885 27.6063073 24.7656098 17.1238993 17.1351474 26.6677205 25.9069995 16.9851994 17.2878739 25.621554 26.951079 16.8321676 17.4262971 24.4778828 27.8877933 16.6662777 17.549084 23.2477211 28.7081212 16.4891274 17.6550519 21.942916 29.4041627 16.3024227 17.7431805 20.5760336 29.9692145 16.1079616 17.812621 19.1602375 30.3978347 15.907617 17.8627046 17.7091629 30.6858956 15.7033182 17.892949 16.2367842 30.830623"></polygon>
                                <ellipse id="Oval" fill="#F64798" cx="15.6166489" cy="15.5483811" rx="13.4097523" ry="13.3414845"></ellipse>
                            </g>
                            <circle id="Oval-4" fill="#FFDA00" cx="33.5177592" cy="20.5177592" r="8.86575898"></circle>
                        </g>
                    </g>
                </g>
            </g>
        </g>
    </g>
</svg>