<svg xmlns="http://www.w3.org/2000/svg" xmlns:xlink="http://www.w3.org/1999/xlink" width="269" height="270" viewBox="0 0 269 270">
    <defs>
        <path id="a" d="M15.37 36.238c8.153 0 14.764-6.645 14.764-14.842 0-5.465-4.922-12.533-14.765-21.203C5.526 8.863.604 15.93.604 21.396c0 8.197 6.61 14.842 14.765 14.842z"/>
        <path id="c" d="M15.37 36.238c8.153 0 14.764-6.645 14.764-14.842 0-5.465-4.922-12.533-14.765-21.203C5.526 8.863.604 15.93.604 21.396c0 8.197 6.61 14.842 14.765 14.842z"/>
        <path id="e" d="M15.37 36.238c8.153 0 14.764-6.645 14.764-14.842 0-5.465-4.922-12.533-14.765-21.203C5.526 8.863.604 15.93.604 21.396c0 8.197 6.61 14.842 14.765 14.842z"/>
        <path id="g" d="M15.37 36.238c8.153 0 14.764-6.645 14.764-14.842 0-5.465-4.922-12.533-14.765-21.203C5.526 8.863.604 15.93.604 21.396c0 8.197 6.61 14.842 14.765 14.842z"/>
        <path id="i" d="M15.37 36.238c8.153 0 14.764-6.645 14.764-14.842 0-5.465-4.922-12.533-14.765-21.203C5.526 8.863.604 15.93.604 21.396c0 8.197 6.61 14.842 14.765 14.842z"/>
        <path id="k" d="M15.37 36.238c8.153 0 14.764-6.645 14.764-14.842 0-5.465-4.922-12.533-14.765-21.203C5.526 8.863.604 15.93.604 21.396c0 8.197 6.61 14.842 14.765 14.842z"/>
        <path id="m" d="M15.37 36.238c8.153 0 14.764-6.645 14.764-14.842 0-5.465-4.922-12.533-14.765-21.203C5.526 8.863.604 15.93.604 21.396c0 8.197 6.61 14.842 14.765 14.842z"/>
        <path id="o" d="M15.37 36.238c8.153 0 14.764-6.645 14.764-14.842 0-5.465-4.922-12.533-14.765-21.203C5.526 8.863.604 15.93.604 21.396c0 8.197 6.61 14.842 14.765 14.842z"/>
        <path id="q" d="M15.37 36.238c8.153 0 14.764-6.645 14.764-14.842 0-5.465-4.922-12.533-14.765-21.203C5.526 8.863.604 15.93.604 21.396c0 8.197 6.61 14.842 14.765 14.842z"/>
        <path id="s" d="M15.37 36.238c8.153 0 14.764-6.645 14.764-14.842 0-5.465-4.922-12.533-14.765-21.203C5.526 8.863.604 15.93.604 21.396c0 8.197 6.61 14.842 14.765 14.842z"/>
        <path id="u" d="M15.37 36.238c8.153 0 14.764-6.645 14.764-14.842 0-5.465-4.922-12.533-14.765-21.203C5.526 8.863.604 15.93.604 21.396c0 8.197 6.61 14.842 14.765 14.842z"/>
        <path id="w" d="M15.37 36.238c8.153 0 14.764-6.645 14.764-14.842 0-5.465-4.922-12.533-14.765-21.203C5.526 8.863.604 15.93.604 21.396c0 8.197 6.61 14.842 14.765 14.842z"/>
        <path id="y" d="M15.37 36.238c8.153 0 14.764-6.645 14.764-14.842 0-5.465-4.922-12.533-14.765-21.203C5.526 8.863.604 15.93.604 21.396c0 8.197 6.61 14.842 14.765 14.842z"/>
        <path id="A" d="M15.37 36.238c8.153 0 14.764-6.645 14.764-14.842 0-5.465-4.922-12.533-14.765-21.203C5.526 8.863.604 15.93.604 21.396c0 8.197 6.61 14.842 14.765 14.842z"/>
        <path id="C" d="M15.37 36.238c8.153 0 14.764-6.645 14.764-14.842 0-5.465-4.922-12.533-14.765-21.203C5.526 8.863.604 15.93.604 21.396c0 8.197 6.61 14.842 14.765 14.842z"/>
        <path id="E" d="M15.37 36.238c8.153 0 14.764-6.645 14.764-14.842 0-5.465-4.922-12.533-14.765-21.203C5.526 8.863.604 15.93.604 21.396c0 8.197 6.61 14.842 14.765 14.842z"/>
        <path id="G" d="M15.37 36.238c8.153 0 14.764-6.645 14.764-14.842 0-5.465-4.922-12.533-14.765-21.203C5.526 8.863.604 15.93.604 21.396c0 8.197 6.61 14.842 14.765 14.842z"/>
        <path id="I" d="M15.37 36.238c8.153 0 14.764-6.645 14.764-14.842 0-5.465-4.922-12.533-14.765-21.203C5.526 8.863.604 15.93.604 21.396c0 8.197 6.61 14.842 14.765 14.842z"/>
        <path id="K" d="M15.37 36.238c8.153 0 14.764-6.645 14.764-14.842 0-5.465-4.922-12.533-14.765-21.203C5.526 8.863.604 15.93.604 21.396c0 8.197 6.61 14.842 14.765 14.842z"/>
        <path id="M" d="M15.37 36.238c8.153 0 14.764-6.645 14.764-14.842 0-5.465-4.922-12.533-14.765-21.203C5.526 8.863.604 15.93.604 21.396c0 8.197 6.61 14.842 14.765 14.842z"/>
        <path id="O" d="M15.37 36.238c8.153 0 14.764-6.645 14.764-14.842 0-5.465-4.922-12.533-14.765-21.203C5.526 8.863.604 15.93.604 21.396c0 8.197 6.61 14.842 14.765 14.842z"/>
        <path id="Q" d="M15.37 36.238c8.153 0 14.764-6.645 14.764-14.842 0-5.465-4.922-12.533-14.765-21.203C5.526 8.863.604 15.93.604 21.396c0 8.197 6.61 14.842 14.765 14.842z"/>
        <path id="S" d="M15.37 36.238c8.153 0 14.764-6.645 14.764-14.842 0-5.465-4.922-12.533-14.765-21.203C5.526 8.863.604 15.93.604 21.396c0 8.197 6.61 14.842 14.765 14.842z"/>
        <path id="U" d="M15.37 36.238c8.153 0 14.764-6.645 14.764-14.842 0-5.465-4.922-12.533-14.765-21.203C5.526 8.863.604 15.93.604 21.396c0 8.197 6.61 14.842 14.765 14.842z"/>
        <ellipse id="W" cx="136.374" cy="135.879" rx="99.753" ry="100.276"/>
        <ellipse id="X" cx="134.824" cy="134.321" rx="89.047" ry="89.515"/>
        <ellipse id="Y" cx="135.08" cy="134.577" rx="80.147" ry="80.568"/>
        <ellipse id="Z" cx="135.646" cy="135.147" rx="67.896" ry="68.252"/>
        <ellipse id="aa" cx="135.358" cy="134.858" rx="62.115" ry="62.441"/>
    </defs>
    <g fill="none" fill-rule="evenodd" opacity=".2" transform="matrix(-1 0 0 1 270 0)">
        <g transform="translate(116.469 .63)">
            <path fill="#D7BFFF" fill-rule="nonzero" d="M19.031 41.031c8.155 0 14.765-6.645 14.765-14.842 0-5.465-4.922-12.532-14.765-21.203C9.188 13.656 4.267 20.724 4.267 26.19c0 8.197 6.61 14.842 14.764 14.842zm0 3.682C8.854 44.713.604 36.419.604 26.189c0-6.85 5.434-14.652 16.014-23.972L19.03.091l2.414 2.126c10.58 9.32 16.013 17.123 16.013 23.972 0 10.23-8.25 18.524-18.427 18.524z"/>
            <g transform="translate(3.662 4.793)">
                <mask id="b" fill="#fff">
                    <use xlink:href="#a"/>
                </mask>
                <use fill="#633EA5" fill-rule="nonzero" xlink:href="#a"/>
                <ellipse cx="15.369" cy="31.635" fill="#8567BB" mask="url(#b)" rx="15.814" ry="15.897"/>
            </g>
            <ellipse cx="19.031" cy="31.292" fill="#D6BFFF" rx="5.493" ry="5.522"/>
        </g>
        <g transform="matrix(1 0 0 -1 116.469 269.37)">
            <path fill="#D7BFFF" fill-rule="nonzero" d="M19.031 41.031c8.155 0 14.765-6.645 14.765-14.842 0-5.465-4.922-12.532-14.765-21.203C9.188 13.656 4.267 20.724 4.267 26.19c0 8.197 6.61 14.842 14.764 14.842zm0 3.682C8.854 44.713.604 36.419.604 26.189c0-6.85 5.434-14.652 16.014-23.972L19.03.091l2.414 2.126c10.58 9.32 16.013 17.123 16.013 23.972 0 10.23-8.25 18.524-18.427 18.524z"/>
            <g transform="translate(3.662 4.793)">
                <mask id="d" fill="#fff">
                    <use xlink:href="#c"/>
                </mask>
                <use fill="#633EA5" fill-rule="nonzero" xlink:href="#c"/>
                <ellipse cx="15.369" cy="31.635" fill="#8567BB" mask="url(#d)" rx="15.814" ry="15.897"/>
            </g>
            <ellipse cx="19.031" cy="31.292" fill="#D6BFFF" rx="5.493" ry="5.522"/>
        </g>
        <g transform="rotate(15 74.875 577.02)">
            <path fill="#D7BFFF" fill-rule="nonzero" d="M19.031 41.031c8.155 0 14.765-6.645 14.765-14.842 0-5.465-4.922-12.532-14.765-21.203C9.188 13.656 4.267 20.724 4.267 26.19c0 8.197 6.61 14.842 14.764 14.842zm0 3.682C8.854 44.713.604 36.419.604 26.189c0-6.85 5.434-14.652 16.014-23.972L19.03.091l2.414 2.126c10.58 9.32 16.013 17.123 16.013 23.972 0 10.23-8.25 18.524-18.427 18.524z"/>
            <g transform="translate(3.662 4.793)">
                <mask id="f" fill="#fff">
                    <use xlink:href="#e"/>
                </mask>
                <use fill="#633EA5" fill-rule="nonzero" xlink:href="#e"/>
                <ellipse cx="15.369" cy="31.635" fill="#8567BB" mask="url(#f)" rx="15.814" ry="15.897"/>
            </g>
            <ellipse cx="19.031" cy="31.292" fill="#D6BFFF" rx="5.493" ry="5.522"/>
        </g>
        <g transform="scale(1 -1) rotate(-15 -945.77 -442.649)">
            <path fill="#D7BFFF" fill-rule="nonzero" d="M19.031 41.031c8.155 0 14.765-6.645 14.765-14.842 0-5.465-4.922-12.532-14.765-21.203C9.188 13.656 4.267 20.724 4.267 26.19c0 8.197 6.61 14.842 14.764 14.842zm0 3.682C8.854 44.713.604 36.419.604 26.189c0-6.85 5.434-14.652 16.014-23.972L19.03.091l2.414 2.126c10.58 9.32 16.013 17.123 16.013 23.972 0 10.23-8.25 18.524-18.427 18.524z"/>
            <g transform="translate(3.662 4.793)">
                <mask id="h" fill="#fff">
                    <use xlink:href="#g"/>
                </mask>
                <use fill="#633EA5" fill-rule="nonzero" xlink:href="#g"/>
                <ellipse cx="15.369" cy="31.635" fill="#8567BB" mask="url(#h)" rx="15.814" ry="15.897"/>
            </g>
            <ellipse cx="19.031" cy="31.292" fill="#D6BFFF" rx="5.493" ry="5.522"/>
        </g>
        <g transform="rotate(30 76.091 352.02)">
            <path fill="#D7BFFF" fill-rule="nonzero" d="M19.031 41.031c8.155 0 14.765-6.645 14.765-14.842 0-5.465-4.922-12.532-14.765-21.203C9.188 13.656 4.267 20.724 4.267 26.19c0 8.197 6.61 14.842 14.764 14.842zm0 3.682C8.854 44.713.604 36.419.604 26.189c0-6.85 5.434-14.652 16.014-23.972L19.03.091l2.414 2.126c10.58 9.32 16.013 17.123 16.013 23.972 0 10.23-8.25 18.524-18.427 18.524z"/>
            <g transform="translate(3.662 4.793)">
                <mask id="j" fill="#fff">
                    <use xlink:href="#i"/>
                </mask>
                <use fill="#633EA5" fill-rule="nonzero" xlink:href="#i"/>
                <ellipse cx="15.369" cy="31.635" fill="#8567BB" mask="url(#j)" rx="15.814" ry="15.897"/>
            </g>
            <ellipse cx="19.031" cy="31.292" fill="#D6BFFF" rx="5.493" ry="5.522"/>
        </g>
        <g transform="scale(1 -1) rotate(-30 -425.387 -217.649)">
            <path fill="#D7BFFF" fill-rule="nonzero" d="M19.031 41.031c8.155 0 14.765-6.645 14.765-14.842 0-5.465-4.922-12.532-14.765-21.203C9.188 13.656 4.267 20.724 4.267 26.19c0 8.197 6.61 14.842 14.764 14.842zm0 3.682C8.854 44.713.604 36.419.604 26.189c0-6.85 5.434-14.652 16.014-23.972L19.03.091l2.414 2.126c10.58 9.32 16.013 17.123 16.013 23.972 0 10.23-8.25 18.524-18.427 18.524z"/>
            <g transform="translate(3.662 4.793)">
                <mask id="l" fill="#fff">
                    <use xlink:href="#k"/>
                </mask>
                <use fill="#633EA5" fill-rule="nonzero" xlink:href="#k"/>
                <ellipse cx="15.369" cy="31.635" fill="#8567BB" mask="url(#l)" rx="15.814" ry="15.897"/>
            </g>
            <ellipse cx="19.031" cy="31.292" fill="#D6BFFF" rx="5.493" ry="5.522"/>
        </g>
        <g transform="rotate(45 76.506 275.276)">
            <path fill="#D7BFFF" fill-rule="nonzero" d="M19.031 41.031c8.155 0 14.765-6.645 14.765-14.842 0-5.465-4.922-12.532-14.765-21.203C9.188 13.656 4.267 20.724 4.267 26.19c0 8.197 6.61 14.842 14.764 14.842zm0 3.682C8.854 44.713.604 36.419.604 26.189c0-6.85 5.434-14.652 16.014-23.972L19.03.091l2.414 2.126c10.58 9.32 16.013 17.123 16.013 23.972 0 10.23-8.25 18.524-18.427 18.524z"/>
            <g transform="translate(3.662 4.793)">
                <mask id="n" fill="#fff">
                    <use xlink:href="#m"/>
                </mask>
                <use fill="#633EA5" fill-rule="nonzero" xlink:href="#m"/>
                <ellipse cx="15.369" cy="31.635" fill="#8567BB" mask="url(#n)" rx="15.814" ry="15.897"/>
            </g>
            <ellipse cx="19.031" cy="31.292" fill="#D6BFFF" rx="5.493" ry="5.522"/>
        </g>
        <g transform="scale(1 -1) rotate(-45 -247.893 -140.905)">
            <path fill="#D7BFFF" fill-rule="nonzero" d="M19.031 41.031c8.155 0 14.765-6.645 14.765-14.842 0-5.465-4.922-12.532-14.765-21.203C9.188 13.656 4.267 20.724 4.267 26.19c0 8.197 6.61 14.842 14.764 14.842zm0 3.682C8.854 44.713.604 36.419.604 26.189c0-6.85 5.434-14.652 16.014-23.972L19.03.091l2.414 2.126c10.58 9.32 16.013 17.123 16.013 23.972 0 10.23-8.25 18.524-18.427 18.524z"/>
            <g transform="translate(3.662 4.793)">
                <mask id="p" fill="#fff">
                    <use xlink:href="#o"/>
                </mask>
                <use fill="#633EA5" fill-rule="nonzero" xlink:href="#o"/>
                <ellipse cx="15.369" cy="31.635" fill="#8567BB" mask="url(#p)" rx="15.814" ry="15.897"/>
            </g>
            <ellipse cx="19.031" cy="31.292" fill="#D6BFFF" rx="5.493" ry="5.522"/>
        </g>
        <g transform="rotate(60 76.72 235.55)">
            <path fill="#D7BFFF" fill-rule="nonzero" d="M19.031 41.031c8.155 0 14.765-6.645 14.765-14.842 0-5.465-4.922-12.532-14.765-21.203C9.188 13.656 4.267 20.724 4.267 26.19c0 8.197 6.61 14.842 14.764 14.842zm0 3.682C8.854 44.713.604 36.419.604 26.189c0-6.85 5.434-14.652 16.014-23.972L19.03.091l2.414 2.126c10.58 9.32 16.013 17.123 16.013 23.972 0 10.23-8.25 18.524-18.427 18.524z"/>
            <g transform="translate(3.662 4.793)">
                <mask id="r" fill="#fff">
                    <use xlink:href="#q"/>
                </mask>
                <use fill="#633EA5" fill-rule="nonzero" xlink:href="#q"/>
                <ellipse cx="15.369" cy="31.635" fill="#8567BB" mask="url(#r)" rx="15.814" ry="15.897"/>
            </g>
            <ellipse cx="19.031" cy="31.292" fill="#D6BFFF" rx="5.493" ry="5.522"/>
        </g>
        <g transform="scale(1 -1) rotate(-60 -156.016 -101.18)">
            <path fill="#D7BFFF" fill-rule="nonzero" d="M19.031 41.031c8.155 0 14.765-6.645 14.765-14.842 0-5.465-4.922-12.532-14.765-21.203C9.188 13.656 4.267 20.724 4.267 26.19c0 8.197 6.61 14.842 14.764 14.842zm0 3.682C8.854 44.713.604 36.419.604 26.189c0-6.85 5.434-14.652 16.014-23.972L19.03.091l2.414 2.126c10.58 9.32 16.013 17.123 16.013 23.972 0 10.23-8.25 18.524-18.427 18.524z"/>
            <g transform="translate(3.662 4.793)">
                <mask id="t" fill="#fff">
                    <use xlink:href="#s"/>
                </mask>
                <use fill="#633EA5" fill-rule="nonzero" xlink:href="#s"/>
                <ellipse cx="15.369" cy="31.635" fill="#8567BB" mask="url(#t)" rx="15.814" ry="15.897"/>
            </g>
            <ellipse cx="19.031" cy="31.292" fill="#D6BFFF" rx="5.493" ry="5.522"/>
        </g>
        <g transform="rotate(75 76.856 210.578)">
            <path fill="#D7BFFF" fill-rule="nonzero" d="M19.031 41.031c8.155 0 14.765-6.645 14.765-14.842 0-5.465-4.922-12.532-14.765-21.203C9.188 13.656 4.267 20.724 4.267 26.19c0 8.197 6.61 14.842 14.764 14.842zm0 3.682C8.854 44.713.604 36.419.604 26.189c0-6.85 5.434-14.652 16.014-23.972L19.03.091l2.414 2.126c10.58 9.32 16.013 17.123 16.013 23.972 0 10.23-8.25 18.524-18.427 18.524z"/>
            <g transform="translate(3.662 4.793)">
                <mask id="v" fill="#fff">
                    <use xlink:href="#u"/>
                </mask>
                <use fill="#633EA5" fill-rule="nonzero" xlink:href="#u"/>
                <ellipse cx="15.369" cy="31.635" fill="#8567BB" mask="url(#v)" rx="15.814" ry="15.897"/>
            </g>
            <ellipse cx="19.031" cy="31.292" fill="#D6BFFF" rx="5.493" ry="5.522"/>
        </g>
        <g transform="scale(1 -1) rotate(-75 -98.26 -76.207)">
            <path fill="#D7BFFF" fill-rule="nonzero" d="M19.031 41.031c8.155 0 14.765-6.645 14.765-14.842 0-5.465-4.922-12.532-14.765-21.203C9.188 13.656 4.267 20.724 4.267 26.19c0 8.197 6.61 14.842 14.764 14.842zm0 3.682C8.854 44.713.604 36.419.604 26.189c0-6.85 5.434-14.652 16.014-23.972L19.03.091l2.414 2.126c10.58 9.32 16.013 17.123 16.013 23.972 0 10.23-8.25 18.524-18.427 18.524z"/>
            <g transform="translate(3.662 4.793)">
                <mask id="x" fill="#fff">
                    <use xlink:href="#w"/>
                </mask>
                <use fill="#633EA5" fill-rule="nonzero" xlink:href="#w"/>
                <ellipse cx="15.369" cy="31.635" fill="#8567BB" mask="url(#x)" rx="15.814" ry="15.897"/>
            </g>
            <ellipse cx="19.031" cy="31.292" fill="#D6BFFF" rx="5.493" ry="5.522"/>
        </g>
        <g>
            <g transform="rotate(90 76.951 192.92)">
                <path fill="#D7BFFF" fill-rule="nonzero" d="M19.031 41.031c8.155 0 14.765-6.645 14.765-14.842 0-5.465-4.922-12.532-14.765-21.203C9.188 13.656 4.267 20.724 4.267 26.19c0 8.197 6.61 14.842 14.764 14.842zm0 3.682C8.854 44.713.604 36.419.604 26.189c0-6.85 5.434-14.652 16.014-23.972L19.03.091l2.414 2.126c10.58 9.32 16.013 17.123 16.013 23.972 0 10.23-8.25 18.524-18.427 18.524z"/>
                <g transform="translate(3.662 4.793)">
                    <mask id="z" fill="#fff">
                        <use xlink:href="#y"/>
                    </mask>
                    <use fill="#633EA5" fill-rule="nonzero" xlink:href="#y"/>
                    <ellipse cx="15.369" cy="31.635" fill="#8567BB" mask="url(#z)" rx="15.814" ry="15.897"/>
                </g>
                <ellipse cx="19.031" cy="31.292" fill="#D6BFFF" rx="5.493" ry="5.522"/>
            </g>
            <g transform="matrix(0 1 1 0 1.13 115.969)">
                <path fill="#D7BFFF" fill-rule="nonzero" d="M19.031 41.031c8.155 0 14.765-6.645 14.765-14.842 0-5.465-4.922-12.532-14.765-21.203C9.188 13.656 4.267 20.724 4.267 26.19c0 8.197 6.61 14.842 14.764 14.842zm0 3.682C8.854 44.713.604 36.419.604 26.189c0-6.85 5.434-14.652 16.014-23.972L19.03.091l2.414 2.126c10.58 9.32 16.013 17.123 16.013 23.972 0 10.23-8.25 18.524-18.427 18.524z"/>
                <g transform="translate(3.662 4.793)">
                    <mask id="B" fill="#fff">
                        <use xlink:href="#A"/>
                    </mask>
                    <use fill="#633EA5" fill-rule="nonzero" xlink:href="#A"/>
                    <ellipse cx="15.369" cy="31.635" fill="#8567BB" mask="url(#B)" rx="15.814" ry="15.897"/>
                </g>
                <ellipse cx="19.031" cy="31.292" fill="#D6BFFF" rx="5.493" ry="5.522"/>
            </g>
        </g>
        <g>
            <g transform="rotate(105 77.024 179.37)">
                <path fill="#D7BFFF" fill-rule="nonzero" d="M19.031 41.031c8.155 0 14.765-6.645 14.765-14.842 0-5.465-4.922-12.532-14.765-21.203C9.188 13.656 4.267 20.724 4.267 26.19c0 8.197 6.61 14.842 14.764 14.842zm0 3.682C8.854 44.713.604 36.419.604 26.189c0-6.85 5.434-14.652 16.014-23.972L19.03.091l2.414 2.126c10.58 9.32 16.013 17.123 16.013 23.972 0 10.23-8.25 18.524-18.427 18.524z"/>
                <g transform="translate(3.662 4.793)">
                    <mask id="D" fill="#fff">
                        <use xlink:href="#C"/>
                    </mask>
                    <use fill="#633EA5" fill-rule="nonzero" xlink:href="#C"/>
                    <ellipse cx="15.369" cy="31.635" fill="#8567BB" mask="url(#D)" rx="15.814" ry="15.897"/>
                </g>
                <ellipse cx="19.031" cy="31.292" fill="#D6BFFF" rx="5.493" ry="5.522"/>
            </g>
            <g transform="scale(-1 1) rotate(75 -58.645 33.99)">
                <path fill="#D7BFFF" fill-rule="nonzero" d="M19.031 41.031c8.155 0 14.765-6.645 14.765-14.842 0-5.465-4.922-12.532-14.765-21.203C9.188 13.656 4.267 20.724 4.267 26.19c0 8.197 6.61 14.842 14.764 14.842zm0 3.682C8.854 44.713.604 36.419.604 26.189c0-6.85 5.434-14.652 16.014-23.972L19.03.091l2.414 2.126c10.58 9.32 16.013 17.123 16.013 23.972 0 10.23-8.25 18.524-18.427 18.524z"/>
                <g transform="translate(3.662 4.793)">
                    <mask id="F" fill="#fff">
                        <use xlink:href="#E"/>
                    </mask>
                    <use fill="#633EA5" fill-rule="nonzero" xlink:href="#E"/>
                    <ellipse cx="15.369" cy="31.635" fill="#8567BB" mask="url(#F)" rx="15.814" ry="15.897"/>
                </g>
                <ellipse cx="19.031" cy="31.292" fill="#D6BFFF" rx="5.493" ry="5.522"/>
            </g>
        </g>
        <g>
            <g transform="rotate(120 77.084 168.307)">
                <path fill="#D7BFFF" fill-rule="nonzero" d="M19.031 41.031c8.155 0 14.765-6.645 14.765-14.842 0-5.465-4.922-12.532-14.765-21.203C9.188 13.656 4.267 20.724 4.267 26.19c0 8.197 6.61 14.842 14.764 14.842zm0 3.682C8.854 44.713.604 36.419.604 26.189c0-6.85 5.434-14.652 16.014-23.972L19.03.091l2.414 2.126c10.58 9.32 16.013 17.123 16.013 23.972 0 10.23-8.25 18.524-18.427 18.524z"/>
                <g transform="translate(3.662 4.793)">
                    <mask id="H" fill="#fff">
                        <use xlink:href="#G"/>
                    </mask>
                    <use fill="#633EA5" fill-rule="nonzero" xlink:href="#G"/>
                    <ellipse cx="15.369" cy="31.635" fill="#8567BB" mask="url(#H)" rx="15.814" ry="15.897"/>
                </g>
                <ellipse cx="19.031" cy="31.292" fill="#D6BFFF" rx="5.493" ry="5.522"/>
            </g>
            <g transform="scale(-1 1) rotate(60 -58.78 .857)">
                <path fill="#D7BFFF" fill-rule="nonzero" d="M19.031 41.031c8.155 0 14.765-6.645 14.765-14.842 0-5.465-4.922-12.532-14.765-21.203C9.188 13.656 4.267 20.724 4.267 26.19c0 8.197 6.61 14.842 14.764 14.842zm0 3.682C8.854 44.713.604 36.419.604 26.189c0-6.85 5.434-14.652 16.014-23.972L19.03.091l2.414 2.126c10.58 9.32 16.013 17.123 16.013 23.972 0 10.23-8.25 18.524-18.427 18.524z"/>
                <g transform="translate(3.662 4.793)">
                    <mask id="J" fill="#fff">
                        <use xlink:href="#I"/>
                    </mask>
                    <use fill="#633EA5" fill-rule="nonzero" xlink:href="#I"/>
                    <ellipse cx="15.369" cy="31.635" fill="#8567BB" mask="url(#J)" rx="15.814" ry="15.897"/>
                </g>
                <ellipse cx="19.031" cy="31.292" fill="#D6BFFF" rx="5.493" ry="5.522"/>
            </g>
        </g>
        <g>
            <g transform="rotate(135 77.135 158.807)">
                <path fill="#D7BFFF" fill-rule="nonzero" d="M19.031 41.031c8.155 0 14.765-6.645 14.765-14.842 0-5.465-4.922-12.532-14.765-21.203C9.188 13.656 4.267 20.724 4.267 26.19c0 8.197 6.61 14.842 14.764 14.842zm0 3.682C8.854 44.713.604 36.419.604 26.189c0-6.85 5.434-14.652 16.014-23.972L19.03.091l2.414 2.126c10.58 9.32 16.013 17.123 16.013 23.972 0 10.23-8.25 18.524-18.427 18.524z"/>
                <g transform="translate(3.662 4.793)">
                    <mask id="L" fill="#fff">
                        <use xlink:href="#K"/>
                    </mask>
                    <use fill="#633EA5" fill-rule="nonzero" xlink:href="#K"/>
                    <ellipse cx="15.369" cy="31.635" fill="#8567BB" mask="url(#L)" rx="15.814" ry="15.897"/>
                </g>
                <ellipse cx="19.031" cy="31.292" fill="#D6BFFF" rx="5.493" ry="5.522"/>
            </g>
            <g transform="scale(-1 1) rotate(45 -58.994 -51.85)">
                <path fill="#D7BFFF" fill-rule="nonzero" d="M19.031 41.031c8.155 0 14.765-6.645 14.765-14.842 0-5.465-4.922-12.532-14.765-21.203C9.188 13.656 4.267 20.724 4.267 26.19c0 8.197 6.61 14.842 14.764 14.842zm0 3.682C8.854 44.713.604 36.419.604 26.189c0-6.85 5.434-14.652 16.014-23.972L19.03.091l2.414 2.126c10.58 9.32 16.013 17.123 16.013 23.972 0 10.23-8.25 18.524-18.427 18.524z"/>
                <g transform="translate(3.662 4.793)">
                    <mask id="N" fill="#fff">
                        <use xlink:href="#M"/>
                    </mask>
                    <use fill="#633EA5" fill-rule="nonzero" xlink:href="#M"/>
                    <ellipse cx="15.369" cy="31.635" fill="#8567BB" mask="url(#N)" rx="15.814" ry="15.897"/>
                </g>
                <ellipse cx="19.031" cy="31.292" fill="#D6BFFF" rx="5.493" ry="5.522"/>
            </g>
        </g>
        <g>
            <g transform="rotate(150 77.181 150.29)">
                <path fill="#D7BFFF" fill-rule="nonzero" d="M19.031 41.031c8.155 0 14.765-6.645 14.765-14.842 0-5.465-4.922-12.532-14.765-21.203C9.188 13.656 4.267 20.724 4.267 26.19c0 8.197 6.61 14.842 14.764 14.842zm0 3.682C8.854 44.713.604 36.419.604 26.189c0-6.85 5.434-14.652 16.014-23.972L19.03.091l2.414 2.126c10.58 9.32 16.013 17.123 16.013 23.972 0 10.23-8.25 18.524-18.427 18.524z"/>
                <g transform="translate(3.662 4.793)">
                    <mask id="P" fill="#fff">
                        <use xlink:href="#O"/>
                    </mask>
                    <use fill="#633EA5" fill-rule="nonzero" xlink:href="#O"/>
                    <ellipse cx="15.369" cy="31.635" fill="#8567BB" mask="url(#P)" rx="15.814" ry="15.897"/>
                </g>
                <ellipse cx="19.031" cy="31.292" fill="#D6BFFF" rx="5.493" ry="5.522"/>
            </g>
            <g transform="scale(-1 1) rotate(30 -59.409 -153.674)">
                <path fill="#D7BFFF" fill-rule="nonzero" d="M19.031 41.031c8.155 0 14.765-6.645 14.765-14.842 0-5.465-4.922-12.532-14.765-21.203C9.188 13.656 4.267 20.724 4.267 26.19c0 8.197 6.61 14.842 14.764 14.842zm0 3.682C8.854 44.713.604 36.419.604 26.189c0-6.85 5.434-14.652 16.014-23.972L19.03.091l2.414 2.126c10.58 9.32 16.013 17.123 16.013 23.972 0 10.23-8.25 18.524-18.427 18.524z"/>
                <g transform="translate(3.662 4.793)">
                    <mask id="R" fill="#fff">
                        <use xlink:href="#Q"/>
                    </mask>
                    <use fill="#633EA5" fill-rule="nonzero" xlink:href="#Q"/>
                    <ellipse cx="15.369" cy="31.635" fill="#8567BB" mask="url(#R)" rx="15.814" ry="15.897"/>
                </g>
                <ellipse cx="19.031" cy="31.292" fill="#D6BFFF" rx="5.493" ry="5.522"/>
            </g>
        </g>
        <g>
            <g transform="rotate(165 77.224 142.352)">
                <path fill="#D7BFFF" fill-rule="nonzero" d="M19.031 41.031c8.155 0 14.765-6.645 14.765-14.842 0-5.465-4.922-12.532-14.765-21.203C9.188 13.656 4.267 20.724 4.267 26.19c0 8.197 6.61 14.842 14.764 14.842zm0 3.682C8.854 44.713.604 36.419.604 26.189c0-6.85 5.434-14.652 16.014-23.972L19.03.091l2.414 2.126c10.58 9.32 16.013 17.123 16.013 23.972 0 10.23-8.25 18.524-18.427 18.524z"/>
                <g transform="translate(3.662 4.793)">
                    <mask id="T" fill="#fff">
                        <use xlink:href="#S"/>
                    </mask>
                    <use fill="#633EA5" fill-rule="nonzero" xlink:href="#S"/>
                    <ellipse cx="15.369" cy="31.635" fill="#8567BB" mask="url(#T)" rx="15.814" ry="15.897"/>
                </g>
                <ellipse cx="19.031" cy="31.292" fill="#D6BFFF" rx="5.493" ry="5.522"/>
            </g>
            <g transform="scale(-1 1) rotate(15 -60.625 -452.206)">
                <path fill="#D7BFFF" fill-rule="nonzero" d="M19.031 41.031c8.155 0 14.765-6.645 14.765-14.842 0-5.465-4.922-12.532-14.765-21.203C9.188 13.656 4.267 20.724 4.267 26.19c0 8.197 6.61 14.842 14.764 14.842zm0 3.682C8.854 44.713.604 36.419.604 26.189c0-6.85 5.434-14.652 16.014-23.972L19.03.091l2.414 2.126c10.58 9.32 16.013 17.123 16.013 23.972 0 10.23-8.25 18.524-18.427 18.524z"/>
                <g transform="translate(3.662 4.793)">
                    <mask id="V" fill="#fff">
                        <use xlink:href="#U"/>
                    </mask>
                    <use fill="#633EA5" fill-rule="nonzero" xlink:href="#U"/>
                    <ellipse cx="15.369" cy="31.635" fill="#8567BB" mask="url(#V)" rx="15.814" ry="15.897"/>
                </g>
                <ellipse cx="19.031" cy="31.292" fill="#D6BFFF" rx="5.493" ry="5.522"/>
            </g>
        </g>
        <g>
            <use fill="#633EA5" xlink:href="#W"/>
            <ellipse cx="136.374" cy="135.879" stroke="#D6BFFF" stroke-width="2.286" rx="98.61" ry="99.133"/>
        </g>
        <g>
            <use fill="#633EA5" xlink:href="#X"/>
            <ellipse cx="134.824" cy="134.321" stroke="#D7BFFF" stroke-width="1.524" rx="88.285" ry="88.752"/>
        </g>
        <g>
            <use fill="#633EA5" xlink:href="#Y"/>
            <ellipse cx="135.08" cy="134.577" stroke="#C6ABF6" stroke-width=".762" rx="79.766" ry="80.187"/>
        </g>
        <g>
            <use fill="#633EA5" xlink:href="#Z"/>
            <ellipse cx="135.646" cy="135.147" stroke="#886DB8" stroke-width="2.286" rx="66.753" ry="67.109"/>
        </g>
        <g>
            <use fill="#D7C0FF" xlink:href="#aa"/>
            <ellipse cx="135.358" cy="134.858" stroke="#54348C" stroke-width="2.286" rx="60.972" ry="61.298"/>
        </g>
        <path fill="#C7AAFA" d="M134.791 83.46a2.953 2.953 0 0 1 2.954 2.954v4.484a2.953 2.953 0 1 1-5.907 0v-4.484a2.953 2.953 0 0 1 2.953-2.953zm13.277 1.757a2.953 2.953 0 0 1 2.088 3.617l-1.16 4.331a2.953 2.953 0 0 1-5.706-1.528l1.16-4.332a2.953 2.953 0 0 1 3.618-2.088zm12.372 5.149a2.953 2.953 0 0 1 1.08 4.034l-2.241 3.883a2.953 2.953 0 1 1-5.116-2.953l2.243-3.883a2.953 2.953 0 0 1 4.034-1.081zm10.624 8.19a2.953 2.953 0 0 1 0 4.177l-3.17 3.17a2.953 2.953 0 0 1-4.178-4.176l3.171-3.17a2.953 2.953 0 0 1 4.177 0zm8.152 10.674a2.953 2.953 0 0 1-1.08 4.035l-3.884 2.242a2.953 2.953 0 0 1-2.953-5.115l3.883-2.243a2.953 2.953 0 0 1 4.034 1.081zm5.125 12.43a2.953 2.953 0 0 1-2.089 3.618l-4.331 1.16a2.953 2.953 0 0 1-1.529-5.705l4.332-1.16a2.953 2.953 0 0 1 3.617 2.088zm1.748 13.34a2.953 2.953 0 0 1-2.954 2.953h-4.484a2.953 2.953 0 1 1 0-5.907h4.484A2.953 2.953 0 0 1 186.09 135zm-1.748 13.34a2.953 2.953 0 0 1-3.617 2.088l-4.332-1.16a2.953 2.953 0 0 1 1.529-5.706l4.331 1.16a2.953 2.953 0 0 1 2.089 3.617zm-5.125 12.43a2.953 2.953 0 0 1-4.034 1.08l-3.884-2.241a2.953 2.953 0 0 1 2.954-5.116l3.883 2.242a2.953 2.953 0 0 1 1.081 4.035zm-8.152 10.674a2.953 2.953 0 0 1-4.177 0l-3.17-3.171a2.953 2.953 0 1 1 4.176-4.177l3.171 3.171a2.953 2.953 0 0 1 0 4.177zm-10.624 8.19a2.953 2.953 0 0 1-4.034-1.08l-2.243-3.884a2.953 2.953 0 0 1 5.116-2.953l2.242 3.883a2.953 2.953 0 0 1-1.081 4.034zm-12.372 5.15a2.953 2.953 0 0 1-3.617-2.09l-1.16-4.33a2.953 2.953 0 1 1 5.705-1.53l1.16 4.332a2.953 2.953 0 0 1-2.088 3.617zm-13.277 1.755a2.953 2.953 0 0 1-2.953-2.953v-4.484a2.953 2.953 0 1 1 5.907 0v4.484a2.953 2.953 0 0 1-2.954 2.953zm-13.277-1.756a2.953 2.953 0 0 1-2.088-3.617l1.16-4.331a2.953 2.953 0 1 1 5.705 1.529l-1.16 4.33a2.953 2.953 0 0 1-3.617 2.09zm-12.371-5.149a2.953 2.953 0 0 1-1.081-4.034l2.242-3.883a2.953 2.953 0 0 1 5.115 2.953l-2.242 3.883a2.953 2.953 0 0 1-4.034 1.081zm-10.625-8.19a2.953 2.953 0 0 1 0-4.177l3.171-3.17a2.953 2.953 0 0 1 4.177 4.176l-3.17 3.17a2.953 2.953 0 0 1-4.178 0zm-8.152-10.674a2.953 2.953 0 0 1 1.081-4.035l3.884-2.242a2.953 2.953 0 0 1 2.953 5.115l-3.883 2.243a2.953 2.953 0 0 1-4.035-1.081zm-5.124-12.43a2.953 2.953 0 0 1 2.088-3.618l4.332-1.16a2.953 2.953 0 1 1 1.528 5.705l-4.331 1.16a2.953 2.953 0 0 1-3.617-2.088zM83.494 135a2.953 2.953 0 0 1 2.953-2.953h4.485a2.953 2.953 0 0 1 0 5.906h-4.485A2.953 2.953 0 0 1 83.494 135zm1.748-13.34a2.953 2.953 0 0 1 3.617-2.088l4.331 1.16a2.953 2.953 0 0 1-1.528 5.706l-4.332-1.16a2.953 2.953 0 0 1-2.088-3.617zm5.124-12.43a2.953 2.953 0 0 1 4.035-1.08l3.883 2.241a2.953 2.953 0 0 1-2.953 5.116l-3.884-2.242a2.953 2.953 0 0 1-1.08-4.035zm8.152-10.674a2.953 2.953 0 0 1 4.177 0l3.171 3.171a2.953 2.953 0 1 1-4.177 4.177l-3.17-3.171a2.953 2.953 0 0 1 0-4.177zm10.625-8.19a2.953 2.953 0 0 1 4.034 1.08l2.242 3.884a2.953 2.953 0 1 1-5.115 2.953l-2.242-3.883a2.953 2.953 0 0 1 1.08-4.034zm12.371-5.15a2.953 2.953 0 0 1 3.618 2.09l1.16 4.33a2.953 2.953 0 1 1-5.705 1.53l-1.16-4.332a2.953 2.953 0 0 1 2.087-3.617z"/>
        <ellipse cx="135.492" cy="134.992" fill="#54348C" rx="36.613" ry="36.805"/>
        <ellipse cx="135.845" cy="135.346" fill="#8467B7" rx="25.98" ry="26.116"/>
        <path fill="#A184D5" d="M119.868 147.854a20.291 20.291 0 0 1-4.51-12.791c0-11.217 9.046-20.31 20.204-20.31 4.07 0 7.858 1.209 11.029 3.29a20.795 20.795 0 0 0-6.735-1.116c-11.917 0-21.578 10.052-21.578 22.452 0 2.999.565 5.86 1.59 8.475z"/>
        <path fill="#896DB8" d="M142.824 68.735c0 4.066-14.648 4.066-14.648 0s3.279-7.363 7.324-7.363 7.324 3.297 7.324 7.363zm16.809 4.154c-1.053 3.927-15.202.136-14.15-3.792 1.053-3.927 5.074-6.263 8.98-5.216 3.908 1.047 6.222 5.08 5.17 9.008zm15.164 8.386c-2.033 3.522-14.72-3.803-12.686-7.324 2.033-3.522 6.521-4.737 10.024-2.714 3.503 2.022 4.695 6.516 2.662 10.038zm12.486 12.048c-2.876 2.875-13.234-7.483-10.358-10.358 2.875-2.876 7.525-2.888 10.385-.028 2.86 2.86 2.848 7.51-.027 10.386zm8.957 14.888c-3.522 2.033-10.846-10.653-7.324-12.687 3.521-2.033 8.015-.841 10.038 2.662 2.023 3.503.807 7.991-2.714 10.025zm4.818 16.713c-3.928 1.053-7.72-13.097-3.792-14.15 3.928-1.052 7.96 1.262 9.008 5.17 1.047 3.907-1.289 7.928-5.216 8.98zm.35 17.4c-4.067 0-4.067-14.648 0-14.648 4.066 0 7.362 3.279 7.362 7.324s-3.296 7.324-7.362 7.324zm-4.142 16.901c-3.928-1.052-.136-15.202 3.792-14.15 3.927 1.053 6.263 5.074 5.216 8.981-1.047 3.908-5.08 6.222-9.008 5.17zm-8.35 15.25c-3.522-2.033 3.802-14.719 7.324-12.686 3.521 2.034 4.737 6.522 2.714 10.025s-6.517 4.695-10.038 2.662zm-11.991 12.56c-2.876-2.875 7.482-13.233 10.358-10.358 2.875 2.876 2.887 7.525.027 10.386-2.86 2.86-7.51 2.848-10.385-.028zm-14.814 9.014c-2.033-3.521 10.653-10.846 12.686-7.324 2.033 3.522.841 8.016-2.662 10.038-3.503 2.023-7.991.808-10.024-2.714zm-16.628 4.854c-1.052-3.928 13.097-7.72 14.15-3.792 1.052 3.928-1.262 7.961-5.17 9.008-3.906 1.047-7.927-1.289-8.98-5.216zm-17.307.362c0-4.066 14.648-4.066 14.648 0s-3.279 7.363-7.324 7.363-7.324-3.297-7.324-7.363zm-16.809-4.154c1.053-3.927 15.202-.136 14.15 3.792-1.053 3.927-5.074 6.263-8.98 5.216-3.908-1.047-6.222-5.08-5.17-9.008zm-15.164-8.386c2.033-3.522 14.72 3.803 12.686 7.324-2.033 3.522-6.521 4.737-10.024 2.714-3.503-2.022-4.695-6.516-2.662-10.038zm-12.486-12.048c2.876-2.875 13.234 7.483 10.358 10.358-2.875 2.876-7.525 2.888-10.385.028-2.86-2.86-2.848-7.51.027-10.386zM74.76 161.79c3.522-2.033 10.846 10.653 7.324 12.687-3.521 2.033-8.015.841-10.038-2.662-2.023-3.503-.807-7.991 2.714-10.025zm-4.818-16.713c3.928-1.053 7.72 13.097 3.792 14.15-3.928 1.052-7.96-1.262-9.008-5.17-1.047-3.907 1.289-7.928 5.216-8.98zm-.35-17.4c4.067 0 4.067 14.648 0 14.648-4.066 0-7.362-3.279-7.362-7.324s3.296-7.324 7.362-7.324zm4.142-16.901c3.928 1.052.136 15.202-3.792 14.15-3.927-1.053-6.263-5.074-5.216-8.981 1.047-3.908 5.08-6.222 9.008-5.17zm8.35-15.25c3.522 2.033-3.802 14.719-7.324 12.686-3.521-2.034-4.737-6.522-2.714-10.025s6.517-4.695 10.038-2.662zm11.991-12.56c2.876 2.875-7.482 13.233-10.358 10.358-2.875-2.876-2.887-7.525-.027-10.386 2.86-2.86 7.51-2.848 10.385.028zm14.814-9.014c2.033 3.521-10.653 10.846-12.686 7.324-2.033-3.522-.841-8.016 2.662-10.038 3.503-2.023 7.991-.808 10.024 2.714zm16.628-4.854c1.052 3.928-13.097 7.72-14.15 3.792-1.052-3.928 1.262-7.961 5.17-9.008 3.906-1.047 7.927 1.289 8.98 5.216z"/>
    </g>
</svg>
